TexturaLiberaEx-Bold.sfdir
StartChar: exclam
Encoding: 33 33 1
Width: 360
Flags: W
HStem: 644 20G<225 265>
VStem: 116 128<245 468.881>
LayerCount: 2
Back
SplineSet
140 80 m 25
 220 0 l 1049
150 540 m 1
 150 540 167 516 168 500 c 24
 178 387 180 210 180 210 c 1
 180 210 184 387 192 500 c 24
 195 539 210 600 210 600 c 9
 150 540 l 1
EndSplineSet
Fore
SplineSet
86 505 m 1
 245 664 l 1
 274 635 l 1
 274 635 259 574 256 535 c 0
 248 422 244 245 244 245 c 1
 145 146 l 1
 116 175 l 1
 116 175 114 352 104 465 c 0
 103 481 86 505 86 505 c 1
76 45 m 1
 175 144 l 1
 284 35 l 1
 185 -64 l 1
 76 45 l 1
EndSplineSet
EndChar
StartChar: numbersign
Encoding: 35 35 3
Width: 840
Flags: W
HStem: -214 21G<5 45 245 285> 136 128<95 177 338 417 578 745> 336 128<95 290 451 530 691 745>
LayerCount: 2
Back
SplineSet
300 -150 m 25
 780 700 l 1049
60 -150 m 25
 540 700 l 1049
60 200 m 25
 780 200 l 1049
60 400 m 25
 780 400 l 1049
EndSplineSet
Fore
SplineSet
-4 365 m 1
 95 464 l 1
 362 464 l 1
 476 665 l 1
 575 764 l 1
 604 735 l 1
 451 464 l 1
 602 464 l 1
 716 665 l 1
 815 764 l 1
 844 735 l 1
 691 464 l 1
 815 464 l 1
 844 435 l 1
 745 336 l 1
 619 336 l 1
 578 264 l 1
 815 264 l 1
 844 235 l 1
 745 136 l 1
 506 136 l 1
 364 -115 l 1
 265 -214 l 1
 236 -185 l 1
 417 136 l 1
 266 136 l 1
 124 -115 l 1
 25 -214 l 1
 -4 -185 l 1
 177 136 l 1
 25 136 l 1
 -4 165 l 1
 95 264 l 1
 250 264 l 1
 290 336 l 1
 25 336 l 1
 -4 365 l 1
338 264 m 1
 490 264 l 1
 530 336 l 1
 379 336 l 1
 338 264 l 1
EndSplineSet
EndChar
StartChar: dollar
Encoding: 36 36 4
Width: 720
Flags: W
HStem: -214 21G<305 345> -14 128<95 293.701> 486 128<426.299 625> 644 20G<255 296 659 715>
VStem: 296 128<-115 -59 106 220 380 494 659 665>
LayerCount: 2
Back
SplineSet
360 700 m 25
 360 -150 l 1049
660 600 m 17
 660 600 610 550 570 550 c 24
 440 550 240 600 240 600 c 9
 120 480 l 1
 120 340 l 1
 600 260 l 1
 600 120 l 1
 480 0 l 17
 480 0 280 50 150 50 c 24
 110 50 60 0 60 0 c 1025
EndSplineSet
Fore
SplineSet
724 635 m 1
 625 536 l 1
 625 536 575 486 535 486 c 0
 501 486 463 489 424 494 c 1
 424 359 l 1
 635 324 l 1
 664 295 l 1
 664 155 l 1
 445 -64 l 1
 445 -64 437 -62 424 -59 c 1
 424 -115 l 1
 325 -214 l 1
 296 -185 l 1
 296 -33 l 1
 237 -23 170 -14 115 -14 c 0
 75 -14 25 -64 25 -64 c 1
 -4 -35 l 1
 95 64 l 1
 95 64 145 114 185 114 c 0
 219 114 257 111 296 106 c 1
 296 241 l 1
 85 276 l 1
 56 305 l 1
 56 445 l 1
 275 664 l 1
 275 664 283 662 296 659 c 1
 296 665 l 1
 395 764 l 1
 424 735 l 1
 424 633 l 1
 483 623 550 614 605 614 c 0
 645 614 695 664 695 664 c 1
 724 635 l 1
296 516 m 1
 243 527 205 536 205 536 c 0
 205 536 186 517 184 515 c 2
 184 399 l 1
 296 380 l 1
 296 516 l 1
424 84 m 1
 477 73 515 64 515 64 c 2
 536 85 l 1
 536 201 l 1
 424 220 l 1
 424 84 l 1
EndSplineSet
EndChar
StartChar: quotesingle
Encoding: 39 39 7
Width: 360
Flags: W
HStem: 679 20G<160 200>
VStem: 41 248
LayerCount: 2
Back
SplineSet
145 635 m 25
 225 555 l 1
 225 475 l 25
 105 355 l 1049
EndSplineSet
Fore
SplineSet
81 600 m 1
 180 699 l 1
 289 590 l 1
 289 510 l 1
 70 291 l 1
 41 320 l 1
 161 440 l 1
 161 520 l 1
 81 600 l 1
EndSplineSet
EndChar
StartChar: asterisk
Encoding: 42 42 10
Width: 600
Flags: W
HStem: 544 20G<135 202.647 467.063 535> 644 20G<315 355>
VStem: 236 128<285 320 530 565>
LayerCount: 2
Back
SplineSet
120 350 m 25
 480 500 l 1049
300 600 m 25
 300 250 l 1049
120 500 m 25
 480 350 l 1049
EndSplineSet
Fore
SplineSet
56 465 m 1
 155 564 l 1
 236 530 l 1
 236 565 l 1
 335 664 l 1
 364 635 l 1
 364 501 l 1
 515 564 l 1
 544 535 l 1
 450 441 l 1
 515 414 l 1
 544 385 l 1
 445 286 l 1
 364 320 l 1
 364 285 l 1
 265 186 l 1
 236 215 l 1
 236 349 l 1
 85 286 l 1
 56 315 l 1
 150 409 l 1
 85 436 l 1
 56 465 l 1
EndSplineSet
EndChar
StartChar: two
Encoding: 50 50 18
Width: 480
Flags: W
HStem: -14 128<213.81 356> 444 20G<191 323> 444 20G<191 323>
LayerCount: 2
Back
SplineSet
120 350 m 1
 180 400 l 1
 240 400 l 1
 360 350 l 1
 360 275 l 1
 120 75 l 25
 120 0 l 1
 120 0 196 50 300 50 c 3
 342 50 390 0 391 0 c 1025
EndSplineSet
Fore
SplineSet
56 315 m 1xc0
 155 414 l 1
 215 464 l 1
 275 464 l 1
 395 414 l 1
 424 385 l 1
 424 310 l 1
 325 211 l 1
 184 94 l 1
 184 80 l 1
 215 95 270 114 335 114 c 0
 377 114 425 64 426 64 c 2
 455 35 l 1
 356 -64 l 2
 355 -64 307 -14 265 -14 c 0
 161 -14 85 -64 85 -64 c 1
 56 -35 l 1
 56 40 l 1
 155 139 l 1
 296 256 l 1
 296 298 l 1
 205 336 l 1
 145 336 l 1
 85 286 l 1
 56 315 l 1xc0
EndSplineSet
Substitution2: "Subscript forms-1" two.inferior
Substitution2: "Superscript forms-1" two.superior
EndChar
StartChar: semicolon
Encoding: 59 59 27
Width: 360
Flags: W
VStem: 41 248
LayerCount: 2
Back
SplineSet
145 80 m 25
 225 0 l 1
 225 -80 l 25
 105 -200 l 1049
140 360 m 25
 220 280 l 1049
EndSplineSet
Fore
SplineSet
76 325 m 1
 175 424 l 1
 284 315 l 1
 185 216 l 1
 76 325 l 1
81 45 m 1
 180 144 l 1
 289 35 l 1
 289 -45 l 1
 70 -264 l 1
 41 -235 l 1
 161 -115 l 1
 161 -35 l 1
 81 45 l 1
EndSplineSet
EndChar
StartChar: A
Encoding: 65 65 33
Width: 840
Flags: W
HStem: -14 128<130.592 230.54> 511 21G<215 249> 644 20G<350 378 575 615>
AnchorPoint: "blwmark" 480 0 basechar 0
AnchorPoint: "abvmark" 540 700 basechar 0
LayerCount: 2
Back
SplineSet
640 520 m 25
 560 600 l 25
 480 520 l 1049
240 300 m 1
 240 300 276 350 360 350 c 3
 512 350 600 250 601 250 c 1025
270 575 m 1
 270 575 282 600 330 600 c 11
 389 600 420 549 420 500 c 3
 420 263 211 75 211 75 c 1025
60 0 m 17
 60 0 97 50 180 50 c 3
 298 50 330 0 330 0 c 1025
600 560 m 1
 660 60 l 1
 720 0 l 9
 780 60 l 1049
EndSplineSet
Fore
SplineSet
25 -64 m 1
 -4 -35 l 1
 -4 -35 -1 -32 3 -28 c 2
 102 71 l 2
 116 85 152 114 215 114 c 1
 249 157 289 216 318 286 c 1
 269 284 238 266 221 252 c 2
 205 236 l 1
 176 265 l 1
 176 265 178 268 183 273 c 2
 282 372 l 2
 293 383 315 400 352 409 c 1
 354 427 356 446 356 465 c 0
 356 486 351 507 340 524 c 1
 328 531 312 536 295 536 c 0
 272 536 258 531 249 525 c 2
 235 511 l 1
 206 540 l 1
 206 540 207 543 211 547 c 2
 310 646 l 2
 311 646 l 0
 319 654 335 664 365 664 c 0
 391 664 411 655 426 640 c 2
 455 611 l 2
 470 595 480 574 483 552 c 1
 595 664 l 1
 635 624 l 1
 664 595 l 1
 704 555 l 1
 673 524 l 1
 724 95 l 2
 726 80 746 73 755 64 c 1
 815 124 l 1
 844 95 l 1
 685 -64 l 1
 596 25 l 1
 576 196 l 1
 566 186 l 2
 565 186 508 251 406 276 c 1
 362 201 311 145 288 122 c 2
 275 109 l 1
 324 100 349 81 359 71 c 2
 388 42 l 2
 392 38 394 35 394 35 c 1
 295 -64 l 1
 281 -50 l 2
 262 -35 222 -14 145 -14 c 0
 92 -14 58 -34 40 -49 c 2
 25 -64 l 1
464 407 m 1
 499 400 529 387 554 374 c 1
 536 525 l 1
 525 536 l 1
 482 493 l 1
 479 463 472 435 464 407 c 1
EndSplineSet
EndChar
StartChar: B
Encoding: 66 66 34
Width: 840
Flags: W
HStem: -64 21G<5 40 397 585> -14 128<130.592 220 260 331> 486 21G<5 43> 536 128<100 188.11>
VStem: 220 40<114 512> 326 128<185 505> 656 128<156 220>
AnchorPoint: "blwmark" 420 0 basechar 0
AnchorPoint: "abvmark" 480 700 basechar 0
LayerCount: 2
Back
SplineSet
60 550 m 1
 60 550 101 600 149 600 c 3
 192 600 214 575 240 575 c 3
 274 575 300 600 301 600 c 1025
240 550 m 1
 240 75 l 1025
390 150 m 1
 390 540 l 1
 450 600 l 1
 720 475 l 1
 540 295 l 1025
620 355 m 1
 720 255 l 1
 720 121.200195312 l 25
 600 0 l 17
 600 0 419 50 180 50 c 3
 97 50 60 0 60 0 c 1033
EndSplineSet
Fore
SplineSet
25 486 m 1
 -4 515 l 1
 -4 515 0 519 5 524 c 2
 104 623 l 2
 118 637 149 664 184 664 c 0
 227 664 249 639 275 639 c 0
 309 639 335 664 336 664 c 2
 365 635 l 1
 266 536 l 2
 266 536 263 534 260 532 c 2
 260 113 l 1
 284 112 308 111 331 110 c 1
 326 115 l 1
 326 505 l 1
 485 664 l 1
 755 539 l 1
 784 510 l 1
 674 400 l 1
 784 290 l 1
 784 156 l 1
 664 35 l 1
 565 -64 l 1
 565 -64 384 -14 145 -14 c 0
 92 -14 58 -34 40 -49 c 2
 25 -64 l 1
 -4 -35 l 2
 -4 -35 -2 -32 2 -28 c 2
 3 -28 l 2
 102 71 l 2
 116 85 152 114 215 114 c 0
 217 114 219 114 220 114 c 2
 220 512 l 1
 215 511 210 511 205 511 c 0
 179 511 157 536 114 536 c 0
 86 536 60 518 43 504 c 2
 25 486 l 1
376 107 m 1
 523 94 624 67 634 64 c 1
 656 86 l 1
 656 220 l 1
 575 301 l 1
 505 231 l 1
 476 260 l 1
 645 429 l 1
 454 518 l 1
 454 185 l 1
 376 107 l 1
EndSplineSet
EndChar
StartChar: G
Encoding: 71 71 39
Width: 900
Flags: W
HStem: -64 128<503 575.746> 300 128<639.5 736.5> 300 71<611 637.001> 486 128<612 708.5> 644 20G<369.699 415 545 596 766 806>
VStem: 86 128<218.448 363.797> 340 40<102 441 541 551> 446 128<135 282.967 333 465> 716 128<159.706 290.276>
AnchorPoint: "blwmark" 480 0 basechar 0
AnchorPoint: "abvmark" 540 700 basechar 0
LayerCount: 2
Back
SplineSet
570 300 m 17
 570 300 626 364 690 364 c 3
 757 364 780 306 780 200 c 3
 780 75 623 0 480 0 c 3
 264 0 150 134 150 300 c 3
 150 480 360 600 360 600 c 1025
360 550 m 1
 360 100 l 1025
510 500 m 1
 510 100 l 1025
360 492 m 1
 360 492 474 600 546 600 c 3
 623 600 590 550 660 550 c 3
 718 550 750 600 751 600 c 1025
EndSplineSet
Fore
SplineSet
517 536 m 2x9f80
 515 536 513 536 511 536 c 0
 472 536 419 503 380 474 c 1
 380 85 l 1
 400 78 423 73 446 69 c 1
 446 465 l 1
 517 536 l 2x9f80
574 506 m 1
 574 333 l 1
 611 371 l 2
 612 371 l 0xbf80
 629 388 674 428 725 428 c 0xdf80
 748 428 766 422 780 408 c 2
 809 378 l 2
 834 352 844 304 844 235 c 0
 844 192 825 155 795 125 c 2
 696 26 l 2
 638 -31 539 -64 445 -64 c 0
 336 -64 253 -30 197 26 c 2
 168 55 l 2
 114 109 86 183 86 265 c 0
 86 355 139 430 191 482 c 2
 290 581 l 2
 342 633 395 664 395 664 c 1
 424 635 l 1
 380 592 l 1
 380 541 l 1
 395 556 l 1
 395 556 509 664 581 664 c 0
 611 664 624 656 633 647 c 2
 659 621 l 2
 667 617 678 614 695 614 c 0
 722 614 743 625 758 636 c 2
 786 664 l 2
 815 635 l 2
 813 633 810 628 802 620 c 2
 801 619 l 2
 702 520 l 2
 687 505 661 486 625 486 c 0
 599 486 587 493 579 501 c 2
 574 506 l 1
340 500 m 1
 340 551 l 1
 325 536 l 2
 325 536 304 523 275 501 c 1
 241 456 214 399 214 335 c 0
 214 260 237 193 282 140 c 0
 299 125 319 113 340 102 c 1
 340 441 l 1
 331 433 325 428 325 428 c 2xdf80
 296 457 l 1
 340 500 l 1
574 270 m 1
 574 135 l 1
 503 64 l 2
 507 64 511 64 515 64 c 0
 581 64 650 80 705 109 c 1
 712 126 716 145 716 165 c 0
 716 221 710 263 694 291 c 1
 684 297 670 300 655 300 c 0
 624 300 596 285 574 270 c 1
EndSplineSet
EndChar
StartChar: J
Encoding: 74 74 42
Width: 540
Flags: W
HStem: -214 128<40.4413 168.348> 486 21G<5 43> 536 128<100 188.11>
VStem: 220 40<-100 512> 326 128<-15 505>
AnchorPoint: "abvmark" 300 700 basechar 0
LayerCount: 2
Back
SplineSet
60 550 m 1
 60 550 101 600 149 600 c 3
 192 600 214 575 240 575 c 3
 274 575 300 600 301 600 c 1025
240 550 m 1
 240 -125 l 1025
450 600 m 1
 390 540 l 1
 390 -50 l 1
 240 -200 l 1
 240 -200 208 -150 90 -150 c 3
 7 -150 -30 -200 -30 -200 c 1025
EndSplineSet
Fore
SplineSet
485 664 m 1
 514 635 l 1
 454 575 l 1
 454 -15 l 1
 205 -264 l 1
 191 -250 l 2
 172 -235 132 -214 55 -214 c 0
 2 -214 -32 -234 -50 -249 c 2
 -65 -264 l 1
 -94 -235 l 2
 -94 -235 -92 -232 -88 -228 c 2
 -87 -228 l 2
 12 -129 l 2
 26 -115 62 -86 125 -86 c 0
 166 -86 197 -92 220 -100 c 1
 220 512 l 1
 215 511 210 511 205 511 c 0
 179 511 157 536 114 536 c 0
 86 536 60 518 43 504 c 2
 25 486 l 1
 -4 515 l 1
 -4 515 0 519 5 524 c 2
 104 623 l 2
 118 637 149 664 184 664 c 0
 227 664 249 639 275 639 c 0
 309 639 335 664 336 664 c 2
 365 635 l 1
 266 536 l 2
 266 536 263 534 260 532 c 2
 260 -122 l 2
 263 -125 267 -127 269 -129 c 0
 275 -136 l 1
 326 -85 l 1
 326 505 l 1
 485 664 l 1
EndSplineSet
EndChar
StartChar: Q
Encoding: 81 81 49
Width: 960
Flags: W
HStem: -64 128<381.805 446 503 519 780.994 856.946> -39 128<672 802.645> 644 20G<369.699 415 543 606.5>
VStem: 86 128<216.403 365.204> 340 40<102 443 546 551> 446 128<135 515> 720 128<232.542 407.993>
AnchorPoint: "blwmark" 480 0 basechar 0
AnchorPoint: "abvmark" 540 700 basechar 0
LayerCount: 2
Back
SplineSet
660 0 m 25
 660 0 678 25 720 25 c 27
 762 25 786 0 828 0 c 27
 862 0 900 50 900 50 c 1049
360 550 m 1
 360 100 l 1025
512 550 m 1
 510 100 l 1025
360 600 m 1
 360 600 150 480 150 300 c 3
 150 134 264 0 480 0 c 3
 623 0 784 142 784 300 c 3
 784 512 673 600 540 600 c 3
 436 600 360 492 360 492 c 1025
EndSplineSet
Fore
SplineSet
625 -64 m 1xbe
 596 -35 l 1
 596 -35 598 -33 600 -31 c 2
 699 68 l 2
 706 75 724 89 755 89 c 0x7e
 797 89 821 64 863 64 c 0
 876 64 890 72 901 80 c 2
 935 114 l 1
 964 85 l 2
 964 85 958 77 948 67 c 2
 947 66 l 2
 848 -33 l 2
 834 -47 813 -64 793 -64 c 0xbe
 751 -64 727 -39 685 -39 c 0x7e
 659 -39 643 -48 633 -56 c 2
 625 -64 l 1xbe
463 530 m 1
 435 522 410 509 390 494 c 2
 380 484 l 1
 380 85 l 1
 400 78 423 72 446 69 c 1
 448 515 l 1
 463 530 l 1
503 64 m 2xbe
 507 64 511 64 515 64 c 0
 568 64 624 84 672 116 c 1
 702 161 720 212 720 265 c 0
 720 365 695 438 655 486 c 1
 631 505 605 519 576 527 c 1
 574 135 l 1
 503 64 l 2xbe
340 551 m 1
 325 536 l 1
 325 536 304 523 275 501 c 1
 241 455 214 399 214 335 c 0
 214 260 237 192 282 140 c 0
 299 125 319 113 340 102 c 1
 340 443 l 1
 325 428 l 1
 296 457 l 1
 296 457 307 473 326 492 c 2
 340 505 l 1
 340 551 l 1
380 592 m 1
 380 546 l 1
 425 591 l 2
 457 623 511 664 575 664 c 0
 638 664 696 645 740 601 c 2
 769 571 l 2
 817 523 848 446 848 335 c 0
 848 259 812 187 757 132 c 2
 756 132 l 1
 657 33 l 2
 598 -26 519 -64 445 -64 c 0
 336 -64 253 -29 197 26 c 0
 168 55 l 2
 114 109 86 183 86 265 c 0
 86 354 137 429 190 482 c 0
 191 482 l 2
 290 581 l 2
 342 633 395 664 395 664 c 1
 424 635 l 1
 380 592 l 1
EndSplineSet
EndChar
StartChar: R
Encoding: 82 82 50
Width: 840
Flags: W
HStem: -64 21G<5 40 281 315 665 705> -14 128<130.592 219.251> 486 21G<5 43> 536 128<100 188.11>
VStem: 220 40<114 512> 326 128<95 505> 596 128<70.7805 283>
AnchorPoint: "blwmark" 480 0 basechar 0
AnchorPoint: "abvmark" 480 700 basechar 0
LayerCount: 2
Back
SplineSet
60 550 m 1
 60 550 101 600 149 600 c 3
 192 600 214 575 240 575 c 3
 274 575 300 600 301 600 c 1025
240 550 m 1
 240 75 l 1025
540 295 m 1
 720 475 l 1
 450 600 l 1
 390 540 l 1
 390 60 l 1
 330 0 l 1
 330 0 298 50 180 50 c 3
 97 50 60 0 60 0 c 1033
620 355 m 1
 660 325 l 1
 660 60 l 1
 720 0 l 9
 780 60 l 1049
EndSplineSet
Fore
SplineSet
505 231 m 1
 476 260 l 1
 645 429 l 1
 454 518 l 1
 454 95 l 1
 295 -64 l 1
 281 -50 l 2
 262 -35 222 -14 145 -14 c 0
 92 -14 58 -34 40 -49 c 2
 25 -64 l 1
 -4 -35 l 2
 -4 -35 -2 -32 2 -28 c 2
 3 -28 l 2
 102 71 l 2
 116 85 152 114 215 114 c 0
 217 114 219 114 220 114 c 2
 220 512 l 1
 215 511 210 511 205 511 c 0
 179 511 157 536 114 536 c 0
 86 536 60 518 43 504 c 2
 25 486 l 1
 -4 515 l 1
 -4 515 0 519 5 524 c 2
 104 623 l 2
 118 637 149 664 184 664 c 0
 227 664 249 639 275 639 c 0
 309 639 335 664 336 664 c 2
 365 635 l 1
 266 536 l 2
 266 536 263 534 260 532 c 2
 260 111 l 1
 288 107 310 100 326 93 c 1
 326 505 l 1
 485 664 l 1
 755 539 l 1
 784 510 l 1
 677 403 l 1
 695 389 l 1
 724 360 l 1
 724 95 l 2
 724 79 746 73 755 64 c 1
 815 124 l 1
 844 95 l 1
 685 -64 l 1
 596 25 l 1
 596 283 l 1
 585 291 l 1
 575 301 l 1
 505 231 l 1
EndSplineSet
EndChar
StartChar: T
Encoding: 84 84 52
Width: 840
Flags: W
HStem: -64 130<353.141 411.946> 536 128<260.569 383>
VStem: 86 128<169.971 288.031> 310 40<93 431 498 504> 416 128<135 415>
AnchorPoint: "blwmark" 420 0 basechar 0
AnchorPoint: "abvmark" 480 700 basechar 0
LayerCount: 2
Back
SplineSet
330 450 m 1
 330 100 l 1049
480 450 m 1
 480 100 l 1049
300 450 m 1
 300 450 150 356 150 250 c 3
 150 84 257 0 420 0 c 3
 563 0 721 150 722 150 c 1049
120 500 m 17
 120 500 216 600 300 600 c 27
 396 600 418 500 514 500 c 19
 606 500 690 600 691 600 c 1033
EndSplineSet
Fore
SplineSet
85 436 m 1
 56 465 l 1
 56 465 57 466 58 467 c 2
 157 566 l 2
 172 581 259 664 335 664 c 0
 431 664 453 564 549 564 c 0
 610 564 668 608 699 637 c 2
 726 664 l 2
 755 635 l 1
 754 634 l 2
 752 632 748 627 742 621 c 2
 741 621 l 2
 642 522 l 2
 623 503 587 470 544 451 c 1
 544 135 l 1
 474 65 l 1
 612 77 756 214 757 214 c 2
 786 185 l 1
 687 86 l 2
 686 86 528 -64 385 -64 c 0
 298 -64 227 -40 180 7 c 2
 151 36 l 2
 109 78 86 137 86 215 c 0
 86 266 120 314 157 351 c 0
 158 352 l 2
 257 451 l 2
 276 470 295 485 310 496 c 1
 310 520 l 1
 326 520 l 1
 309 530 289 536 265 536 c 0
 192 536 110 461 90 441 c 2
 85 436 l 1
442 441 m 1
 405 453 379 481 350 504 c 1
 350 498 l 1
 364 485 l 1
 350 472 l 1
 350 78 l 1
 370 72 393 68 416 66 c 1
 416 415 l 1
 442 441 l 1
310 431 m 1
 265 386 l 1
 265 386 256 381 244 372 c 1
 226 345 214 315 214 285 c 0
 214 217 233 161 265 121 c 0
 278 110 294 101 310 93 c 1
 310 431 l 1
EndSplineSet
EndChar
StartChar: V
Encoding: 86 86 54
Width: 840
Flags: W
HStem: -64 21G<395 435> 86 128<260 309.15> 486 21G<5 43> 536 128<100 188.11>
VStem: 220 40<214 512> 326 128<285 505> 536 128<405.5 492.5>
AnchorPoint: "blwmark" 450 0 basechar 0
AnchorPoint: "abvmark" 540 700 basechar 0
LayerCount: 2
Back
SplineSet
60 550 m 1
 60 550 101 600 149 600 c 3
 192 600 214 575 240 575 c 3
 274 575 300 600 301 600 c 1025
240 550 m 1
 240 175 l 1025
390 250 m 1
 390 540 l 1
 450 600 l 1025
120 100 m 17
 120 100 166 150 210 150 c 3
 449 150 450 0 450 0 c 1
 690 241.200195312 l 1
 690 378 l 1
 690 378 600 382.799804688 600 450 c 3
 600 516 720 600 720 600 c 1025
EndSplineSet
Fore
SplineSet
85 36 m 1
 56 65 l 1
 56 65 57 66 59 68 c 2
 158 167 l 2
 167 176 192 199 220 209 c 1
 220 512 l 1
 215 511 210 511 205 511 c 0
 179 511 157 536 114 536 c 0
 86 536 60 518 43 504 c 2
 25 486 l 1
 -4 515 l 1
 -4 515 0 519 5 524 c 2
 104 623 l 2
 118 637 149 664 184 664 c 0
 227 664 249 639 275 639 c 0
 309 639 335 664 336 664 c 2
 365 635 l 1
 266 536 l 2
 266 536 263 534 260 532 c 2
 260 214 l 1
 289 213 314 210 336 205 c 1
 326 215 l 1
 326 505 l 1
 485 664 l 1
 514 635 l 1
 454 575 l 1
 454 285 l 1
 366 197 l 1
 401 185 427 168 444 151 c 2
 473 122 l 2
 487 108 496 94 502 81 c 1
 626 206 l 1
 626 319 l 1
 612 323 594 331 582 343 c 2
 553 372 l 2
 543 382 536 396 536 415 c 0
 536 447 563 482 592 511 c 2
 691 610 l 2
 722 641 755 664 755 664 c 1
 784 635 l 1
 685 536 l 1
 685 536 683 535 680 533 c 0
 670 517 664 500 664 485 c 0
 664 474 666 466 670 458 c 1
 695 444 725 442 725 442 c 1
 754 413 l 1
 754 276 l 1
 514 35 l 1
 415 -64 l 1
 386 -35 l 1
 386 -35 386 -29 384 -21 c 0
 381 -7 375 14 358 37 c 1
 324 64 266 86 175 86 c 0
 141 86 107 57 92 43 c 2
 85 36 l 1
EndSplineSet
EndChar
StartChar: W
Encoding: 87 87 55
Width: 1200
Flags: W
HStem: -64 21G<395 435 755 795> 86 128<260 309.15> 486 21G<5 43> 536 128<100 188.11>
VStem: 220 40<214 512> 326 128<285 505> 626 128<276 515> 896 128<405.5 492.5>
AnchorPoint: "blwmark" 660 0 basechar 0
AnchorPoint: "abvmark" 690 700 basechar 0
LayerCount: 2
Back
SplineSet
660 600 m 25
 720 540 l 1049
60 550 m 1
 60 550 101 600 149 600 c 3
 192 600 214 575 240 575 c 3
 274 575 300 600 301 600 c 1025
240 550 m 1
 240 175 l 1025
390 250 m 1
 390 540 l 1
 450 600 l 1025
120 100 m 17
 120 100 166 150 210 150 c 3
 449 150 450 0 450 0 c 1
 690 241.200195312 l 1
 690 570 l 1025
1080 600 m 1
 1080 600 960 516 960 450 c 3
 960 382.799804688 1050 378 1050 378 c 1
 1050 241.200195312 l 1
 810 0 l 1
 690 241.200195312 l 1049
EndSplineSet
Fore
SplineSet
1144 635 m 1
 1045 536 l 1
 1045 536 1042 535 1040 533 c 0
 1030 516 1024 500 1024 485 c 0
 1024 475 1027 465 1030 458 c 1
 1056 444 1085 442 1085 442 c 2
 1114 413 l 1
 1114 276 l 1
 874 35 l 1
 775 -64 l 1
 746 -35 l 1
 645 167 l 1
 514 35 l 1
 415 -64 l 1
 386 -35 l 1
 386 -35 386 -29 384 -21 c 0
 381 -7 375 14 358 37 c 1
 324 64 266 86 175 86 c 0
 141 86 107 57 92 43 c 2
 85 36 l 1
 56 65 l 1
 56 65 57 66 59 68 c 2
 158 167 l 2
 167 176 192 199 220 209 c 1
 220 512 l 1
 215 511 210 511 205 511 c 0
 179 511 157 536 114 536 c 0
 86 536 60 518 43 504 c 2
 25 486 l 1
 -4 515 l 1
 -4 515 0 519 5 524 c 2
 104 623 l 2
 118 637 149 664 184 664 c 0
 227 664 249 639 275 639 c 0
 309 639 335 664 336 664 c 2
 365 635 l 1
 266 536 l 2
 266 536 263 534 260 532 c 2
 260 214 l 1
 289 213 314 210 336 205 c 1
 326 215 l 1
 326 505 l 1
 485 664 l 1
 514 635 l 1
 454 575 l 1
 454 285 l 1
 366 197 l 1
 401 185 427 168 444 151 c 2
 473 122 l 2
 487 108 496 94 502 81 c 1
 626 206 l 1
 626 525 l 1
 586 565 l 1
 685 664 l 1
 725 624 l 1
 754 595 l 1
 794 555 l 1
 754 515 l 1
 754 276 l 1
 855 74 l 1
 986 206 l 1
 986 319 l 1
 973 323 955 330 943 342 c 0
 942 343 l 2
 913 372 l 2
 903 382 896 396 896 415 c 0
 896 446 922 481 951 510 c 0
 952 511 l 2
 1051 610 l 2
 1082 641 1115 664 1115 664 c 1
 1144 635 l 1
EndSplineSet
EndChar
StartChar: X
Encoding: 88 88 56
Width: 720
Flags: W
HStem: 476 21G<35 75 575 615> 644 20G<165 205 585 625>
AnchorPoint: "abvmark" 360 700 basechar 0
LayerCount: 2
Back
SplineSet
120 275 m 25
 120 275 187 325 240 325 c 27
 335 325 385 300 480 300 c 27
 533 300 600 350 600 350 c 1049
660 60 m 25
 600 0 l 17
 150 600 l 9
 90 540 l 1049
60 60 m 25
 120 0 l 17
 570 600 l 9
 630 540 l 1049
EndSplineSet
Fore
SplineSet
-4 25 m 1
 95 124 l 1
 141 78 l 1
 275 256 l 1
 254 259 231 261 205 261 c 0
 152 261 85 211 85 211 c 1
 56 240 l 1
 155 339 l 1
 155 339 188 363 226 378 c 1
 111 532 l 1
 55 476 l 1
 26 505 l 1
 185 664 l 1
 214 635 l 1
 386 405 l 1
 506 565 l 1
 605 664 l 1
 694 575 l 1
 595 476 l 1
 549 522 l 1
 435 370 l 1
 459 367 485 364 515 364 c 0
 568 364 635 414 635 414 c 1
 664 385 l 1
 565 286 l 1
 565 286 537 265 503 250 c 1
 639 68 l 1
 695 124 l 1
 724 95 l 1
 565 -64 l 1
 536 -35 l 1
 334 235 l 1
 184 35 l 1
 85 -64 l 1
 -4 25 l 1
EndSplineSet
EndChar
StartChar: bracketleft
Encoding: 91 91 59
Width: 360
Flags: W
HStem: -214 128<184 265> 636 128<184 265>
VStem: 56 128<-86 636>
LayerCount: 2
Back
SplineSet
300 700 m 25
 120 700 l 25
 120 -150 l 25
 300 -150 l 1033
EndSplineSet
Fore
SplineSet
364 735 m 1
 265 636 l 1
 184 636 l 1
 184 -86 l 1
 335 -86 l 1
 364 -115 l 1
 265 -214 l 1
 85 -214 l 1
 56 -185 l 1
 56 665 l 1
 155 764 l 1
 335 764 l 1
 364 735 l 1
EndSplineSet
EndChar
StartChar: backslash
Encoding: 92 92 60
Width: 600
Flags: W
HStem: -214 21G<485 525>
LayerCount: 2
Back
SplineSet
540 -150 m 25
 60 700 l 1049
EndSplineSet
Fore
SplineSet
505 -214 m 1
 476 -185 l 1
 -4 665 l 1
 95 764 l 1
 124 735 l 1
 604 -115 l 1
 505 -214 l 1
EndSplineSet
EndChar
StartChar: grave
Encoding: 96 96 64
Width: 480
Flags: W
HStem: 486 278
VStem: 86 308
LayerCount: 2
Back
SplineSet
150 700 m 17
 150 600 330 550 330 550 c 1049
EndSplineSet
Fore
SplineSet
185 764 m 1
 214 735 l 1
 214 714 223 694 235 678 c 1
 289 635 365 614 365 614 c 2
 394 585 l 1
 295 486 l 1
 295 486 201 512 149 564 c 0
 120 593 l 2
 100 613 86 637 86 665 c 1
 185 764 l 1
EndSplineSet
EndChar
StartChar: b
Encoding: 98 98 66
Width: 480
Flags: W
HStem: 444 20G<255 295> 444 20G<255 295>
VStem: 56 128<111.793 315 373 540> 296 128<155 288.207>
AnchorPoint: "blwmark" 240 0 basechar 0
AnchorPoint: "abvmark" 240 700 basechar 0
LayerCount: 2
Back
SplineSet
80 625 m 25
 160 545 l 1049
120 585 m 9
 120 120 l 25
 240 0 l 25
 360 120 l 25
 360 280 l 25
 240 400 l 1
 120 280 l 1049
EndSplineSet
Fore
SplineSet
184 315 m 1x30
 184 155 l 2
 184 106 248 91 275 64 c 1
 296 85 l 1
 296 245 l 2
 296 294 232 309 205 336 c 1
 184 315 l 1x30
184 373 m 1
 275 464 l 1xb0
 424 315 l 1
 424 155 l 1
 205 -64 l 1
 56 85 l 1
 56 550 l 1
 16 590 l 1
 115 689 l 1
 155 649 l 1
 184 620 l 1
 224 580 l 1
 184 540 l 1
 184 373 l 1
EndSplineSet
EndChar
StartChar: j
Encoding: 106 106 74
Width: 240
Flags: W
HStem: 444 20G<95 135> 444 20G<95 135>
VStem: 56 128<-55 315>
LayerCount: 2
Back
SplineSet
110 680 m 25
 190 600 l 25
 110 520 l 1049
160 320 m 25
 80 400 l 25
 0 320 l 1049
120 360 m 1
 120 -90 l 9
 40 -170 l 1049
EndSplineSet
Fore
SplineSet
46 645 m 1x20
 145 744 l 1
 254 635 l 1
 75 456 l 1
 46 485 l 1
 126 565 l 1
 46 645 l 1x20
184 395 m 1
 224 355 l 1
 184 315 l 1
 184 -55 l 1
 5 -234 l 1
 -24 -205 l 1
 56 -125 l 1
 56 325 l 1
 45 336 l 1
 -35 256 l 1
 -64 285 l 1
 115 464 l 1xa0
 155 424 l 1
 184 395 l 1
EndSplineSet
Substitution2: "Dotless forms-1" dotlessj
EndChar
StartChar: o
Encoding: 111 111 79
Width: 480
Flags: W
HStem: 444 20G<255 295> 444 20G<255 295>
VStem: 56 128<111.793 245> 296 128<155 288.207>
AnchorPoint: "blwmark" 240 0 basechar 0
AnchorPoint: "abvmark" 240 500 basechar 0
LayerCount: 2
Back
SplineSet
240 400 m 25
 120 280 l 25
 120 120 l 25
 240 0 l 25
 360 120 l 25
 360 280 l 25
 240 400 l 25
EndSplineSet
Fore
SplineSet
205 336 m 1x30
 184 315 l 1
 184 155 l 2
 184 106 248 91 275 64 c 1
 296 85 l 1
 296 245 l 2
 296 294 232 309 205 336 c 1x30
56 245 m 1
 275 464 l 1xb0
 424 315 l 1
 424 155 l 1
 205 -64 l 1
 56 85 l 1
 56 245 l 1
EndSplineSet
EndChar
StartChar: s
Encoding: 115 115 83
Width: 480
Flags: W
HStem: -4 128<100 200> 276 128<280 379> 444 20G<255 295 425 475> 444 20G<255 295 425 475>
AnchorPoint: "blwmark" 240 0 basechar 0
AnchorPoint: "abvmark" 240 500 basechar 0
LayerCount: 2
Back
SplineSet
420 400 m 17
 420 400 358 340 330 340 c 24
 270 340 240 400 240 400 c 9
 120 280 l 1
 120 240 l 1
 360 160 l 1
 360 120 l 1
 240 0 l 17
 240 0 180 60 150 60 c 24
 120 60 60 0 60 0 c 1025
EndSplineSet
Fore
SplineSet
484 435 m 1xe0
 385 336 l 1
 385 336 323 276 295 276 c 0
 265 276 243 291 228 306 c 2
 201 332 l 1
 184 315 l 1
 184 294 l 1
 395 224 l 1
 424 195 l 1
 424 155 l 1
 205 -64 l 1
 205 -64 145 -4 115 -4 c 0
 85 -4 25 -64 25 -64 c 1
 -4 -35 l 1
 95 64 l 1
 95 64 155 124 185 124 c 0
 215 124 275 64 275 64 c 1
 296 85 l 1
 296 106 l 1
 85 176 l 1
 56 205 l 1
 56 245 l 1
 275 464 l 1
 304 435 l 1
 304 435 307 429 313 421 c 0
 326 412 344 404 365 404 c 0
 393 404 455 464 455 464 c 1
 484 435 l 1xe0
EndSplineSet
EndChar
StartChar: u
Encoding: 117 117 85
Width: 480
Flags: W
HStem: 444 20G<95 135 335 375> 444 20G<95 135 335 375>
VStem: 56 128<90.562 315> 296 128<115 315>
AnchorPoint: "blwmark" 240 0 basechar 0
AnchorPoint: "abvmark" 240 500 basechar 0
LayerCount: 2
Back
SplineSet
160 320 m 25
 80 400 l 1049
450 60 m 25
 390 0 l 1
 360 30 l 17
 360 360 l 1025
400 320 m 25
 320 400 l 1049
120 360 m 25
 120 90 l 1
 210 0 l 25
 360 150 l 1049
EndSplineSet
Fore
SplineSet
485 124 m 1xb0
 514 95 l 1
 355 -64 l 1
 296 -5 l 1
 296 57 l 1
 175 -64 l 1
 56 55 l 1
 56 325 l 1
 16 365 l 1
 115 464 l 1
 155 424 l 1
 184 395 l 1
 224 355 l 1
 184 315 l 1
 184 125 l 2
 184 92 227 82 245 64 c 1
 296 115 l 1
 296 325 l 1
 256 365 l 1
 355 464 l 1
 395 424 l 1
 424 395 l 1
 464 355 l 1
 424 315 l 1
 424 185 l 1
 424 65 l 1
 425 64 l 1
 485 124 l 1xb0
EndSplineSet
EndChar
StartChar: v
Encoding: 118 118 86
Width: 480
Flags: W
HStem: 444 20G<95 135> 464 130G<95 135 400.5 421> 594 20G<400.5 421>
VStem: 56 128<111.793 315> 236 128<412.5 509.5> 296 128<155 364.254>
AnchorPoint: "blwmark" 240 0 basechar 0
LayerCount: 2
Back
SplineSet
160 320 m 25
 80 400 l 1049
120 360 m 25
 120 120 l 1
 240 0 l 25
 360 120 l 1
 360 370 l 17
 340 408 300 423 300 472 c 8
 300 516 365 550 366 550 c 1033
EndSplineSet
Fore
SplineSet
184 395 m 1xb4
 224 355 l 1
 184 315 l 1
 184 155 l 2
 184 106 248 91 275 64 c 1
 296 85 l 1
 296 335 l 1xb4
 276 373 236 388 236 437 c 0
 236 455 247 471 260 484 c 2
 359 583 l 2
 360 584 l 2
 379 603 400 614 401 614 c 2
 430 585 l 1
 366 521 l 2
 365 517 364 512 364 507 c 0xb8
 364 458 404 443 424 405 c 1
 424 155 l 1
 205 -64 l 1
 56 85 l 1
 56 325 l 1
 16 365 l 1
 115 464 l 1
 155 424 l 1
 184 395 l 1xb4
EndSplineSet
Substitution2: "Dotless forms-1" v.alt
EndChar
StartChar: x
Encoding: 120 120 88
Width: 480
Flags: W
HStem: 444 20G<135 175 375 415> 444 20G<135 175 375 415>
AnchorPoint: "blwmark" 240 0 basechar 0
AnchorPoint: "abvmark" 240 500 basechar 0
LayerCount: 2
Back
SplineSet
90 175 m 25
 90 175 146 225 180 225 c 24
 233 225 247 175 300 175 c 24
 334 175 390 225 391 225 c 1049
240 280 m 9
 360 400 l 25
 420 340 l 1049
240 120 m 9
 360 0 l 1
 420 60 l 1049
60 340 m 25
 120 400 l 25
 240 280 l 25
 240 120 l 25
 120 0 l 25
 60 60 l 1049
EndSplineSet
Fore
SplineSet
25 276 m 1x80
 -4 305 l 1
 155 464 l 1
 275 344 l 1
 395 464 l 1
 484 375 l 1
 385 276 l 1
 325 336 l 1
 304 315 l 1
 304 246 l 1
 313 242 323 239 335 239 c 0
 369 239 425 289 426 289 c 2
 455 260 l 1
 356 161 l 2
 356 161 341 148 323 136 c 1
 395 64 l 1
 455 124 l 1
 484 95 l 1
 325 -64 l 1
 205 56 l 1
 85 -64 l 1
 -4 25 l 1
 95 124 l 1
 155 64 l 1
 176 85 l 1
 176 154 l 1
 167 158 157 161 145 161 c 0
 111 161 55 111 55 111 c 1
 26 140 l 1
 125 239 l 1
 125 239 139 252 157 264 c 1
 85 336 l 1
 25 276 l 1x80
EndSplineSet
EndChar
StartChar: braceright
Encoding: 125 125 93
Width: 360
Flags: W
HStem: -214 21G<5 45>
VStem: 116 128<5 145 402 598>
LayerCount: 2
Back
SplineSet
60 700 m 25
 180 650 l 1
 180 350 l 25
 300 300 l 25
 180 180 l 25
 180 -30 l 1
 60 -150 l 1049
EndSplineSet
Fore
SplineSet
-4 665 m 1
 95 764 l 1
 215 714 l 1
 244 685 l 1
 244 402 l 1
 335 364 l 1
 364 335 l 1
 244 215 l 1
 244 5 l 1
 25 -214 l 1
 -4 -185 l 1
 116 -65 l 1
 116 145 l 1
 224 253 l 1
 145 286 l 1
 116 315 l 1
 116 598 l 1
 25 636 l 1
 -4 665 l 1
EndSplineSet
EndChar
StartChar: exclamdown
Encoding: 161 161 200
Width: 360
Flags: W
HStem: 444 20G<155 195> 444 20G<155 195>
VStem: 116 128<-68.8812 155>
LayerCount: 2
Back
SplineSet
220 320 m 25
 140 400 l 1049
210 -140 m 1
 210 -140 193 -116 192 -100 c 24
 182 13 180 190 180 190 c 1
 180 190 176 13 168 -100 c 24
 165 -139 150 -200 150 -200 c 9
 210 -140 l 1
EndSplineSet
Fore
SplineSet
274 -105 m 1x20
 115 -264 l 1
 86 -235 l 1
 86 -235 101 -174 104 -135 c 0
 112 -22 116 155 116 155 c 1
 215 254 l 1
 244 225 l 1
 244 225 246 48 256 -65 c 0
 257 -81 274 -105 274 -105 c 1x20
284 355 m 1
 185 256 l 1
 76 365 l 1
 175 464 l 1xa0
 284 355 l 1
EndSplineSet
EndChar
StartChar: dieresis
Encoding: 168 168 101
Width: 480
Flags: W
HStem: 466 208
LayerCount: 2
Back
SplineSet
320 610 m 25
 400 530 l 1049
80 610 m 25
 160 530 l 1049
EndSplineSet
Fore
SplineSet
16 575 m 1
 115 674 l 1
 224 565 l 1
 125 466 l 1
 16 575 l 1
256 575 m 1
 355 674 l 1
 464 565 l 1
 365 466 l 1
 256 575 l 1
EndSplineSet
EndChar
StartChar: copyright
Encoding: 169 169 221
Width: 840
Flags: W
HStem: -37 74<300.633 569.205> 98 74<386.362 418 454 495.332> 401 74<517.057 561.758> 482 20G<366.667 409 606 624> 563 74<270.795 539.367>
VStem: 23 74<214.832 414.195> 220 74<233.195 354.648> 360 24<194 376 435 436> 418 74<210 390> 743 74<185.805 385.168>
LayerCount: 2
Back
SplineSet
372 438 m 1
 372 190 l 1025
454.799804688 410 m 1
 454.799804688 190 l 1025
372 465 m 1
 372 465 256.799804688 399 256.799804688 300 c 3
 256.799804688 208 320.400390625 135 439.200195312 135 c 3
 517.200195312 135 603.599609375 218 604.799804688 218 c 1025
372 406 m 1
 372 406 434.400390625 465 474 465 c 3
 516 465 499.200195312 438 537.599609375 438 c 3
 568.799804688 438 585.599609375 465 586.799804688 465 c 1025
60 350 m 0
 60 475 210 600 360 600 c 0
 660 600 780 500 780 250 c 0
 780 125 630 0 480 0 c 0
 180 0 60 100 60 350 c 0
EndSplineSet
Fore
SplineSet
23 330 m 0
 23 384 51 438 95 482 c 2
 152 539 l 2
 210 597 295 637 380 637 c 0
 542 637 652 607 718 541 c 2
 735 524 l 2
 791 468 817 385 817 270 c 0
 817 216 789 162 745 118 c 2
 688 61 l 1
 630 3 545 -37 460 -37 c 0
 298 -37 188 -7 122 59 c 2
 105 76 l 2
 49 132 23 215 23 330 c 0
97 370 m 0
 97 261 119 180 170 124 c 1
 237 64 345 37 500 37 c 0
 571 37 641 65 697 108 c 1
 725 145 743 187 743 230 c 0
 743 339 721 420 670 476 c 1
 603 536 495 563 340 563 c 0
 269 563 199 535 143 492 c 1
 115 455 97 413 97 370 c 0
456 428 m 2
 455 428 455 428 454 428 c 0
 433 428 405 412 384 396 c 1
 384 183 l 1
 395 179 406 177 418 175 c 1
 418 390 l 1
 456 428 l 2
454 172 m 2
 456 172 457 172 459 172 c 0
 537 172 624 255 625 255 c 2
 642 238 l 1
 585 181 l 2
 584 181 497 98 419 98 c 0
 358 98 313 117 282 148 c 2
 265 165 l 2
 235 195 220 235 220 280 c 0
 220 329 248 371 277 400 c 0
 278 400 l 2
 335 457 l 2
 364 486 392 502 392 502 c 1
 409 485 l 1
 384 460 l 1
 384 435 l 1
 392 443 l 1
 392 443 454 502 494 502 c 0
 511 502 518 497 523 492 c 2
 536 480 l 2
 541 477 546 475 557 475 c 0
 572 475 585 481 592 487 c 2
 606 501 l 2
 607 502 l 2
 624 485 l 1
 622 484 l 2
 621 483 619 480 616 477 c 2
 616 476 l 2
 559 420 l 2
 551 412 538 401 518 401 c 0
 503 401 497 405 492 410 c 2
 492 210 l 1
 454 172 l 2
360 436 m 1
 352 428 l 1
 352 428 341 421 326 410 c 1
 307 385 294 355 294 320 c 0
 294 279 306 241 330 213 c 0
 339 205 349 200 360 194 c 1
 360 376 l 1
 355 372 352 369 352 369 c 2
 335 386 l 1
 360 411 l 1
 360 436 l 1
EndSplineSet
EndChar
StartChar: registered
Encoding: 174 174 222
Width: 840
Flags: W
HStem: -37 74<300.633 569.205> 125 74<257.547 319 343 354.729> 428 74<256.169 314.529> 563 74<270.795 539.367>
VStem: 23 74<214.832 414.195> 319 24<199 415> 377 74<188 417> 525 74<185 291> 743 74<185.805 385.168>
LayerCount: 2
Back
SplineSet
232 438 m 1
 232 438 255 465 281 465 c 3
 305 465 317 451 331 451 c 3
 349 451 364 465 365 465 c 1025
331 438 m 1
 331 176 l 1025
496 314 m 1
 595 396 l 1
 446 465 l 1
 414 438 l 1
 414 162 l 1
 380 135 l 1
 380 135 363 162 298 162 c 3
 252 162 232 135 232 135 c 1033
530 340 m 5
 562 314 l 1
 562 162 l 1
 595 135 l 9
 628 162 l 1049
60 350 m 0
 60 475 210 600 360 600 c 0
 660 600 780 500 780 250 c 0
 780 125 630 0 480 0 c 0
 180 0 60 100 60 350 c 0
EndSplineSet
Fore
SplineSet
23 330 m 0
 23 384 51 438 95 482 c 2
 152 539 l 2
 210 597 295 637 380 637 c 0
 542 637 652 607 718 541 c 2
 735 524 l 2
 791 468 817 385 817 270 c 0
 817 216 789 162 745 118 c 2
 688 61 l 1
 630 3 545 -37 460 -37 c 0
 298 -37 188 -7 122 59 c 2
 105 76 l 2
 49 132 23 215 23 330 c 0
97 370 m 0
 97 261 119 180 170 124 c 1
 237 64 345 37 500 37 c 0
 571 37 641 65 697 108 c 1
 725 145 743 187 743 230 c 0
 743 339 721 420 670 476 c 1
 603 536 495 563 340 563 c 0
 269 563 199 535 143 492 c 1
 115 455 97 413 97 370 c 0
459 294 m 1
 516 351 l 1
 544 374 l 1
 451 417 l 1
 451 182 l 1
 394 125 l 1
 360 98 l 1
 352 106 l 2
 341 114 320 125 278 125 c 0
 248 125 229 114 220 106 c 2
 212 98 l 1
 195 115 l 1
 195 115 197 117 199 119 c 2
 255 175 l 2
 262 182 283 199 318 199 c 0
 319 199 l 2
 319 415 l 2
 316 414 314 414 311 414 c 0
 297 414 285 428 261 428 c 0
 244 428 229 417 220 409 c 2
 212 401 l 1
 195 418 l 1
 195 418 197 420 199 422 c 2
 255 479 l 2
 262 486 281 502 301 502 c 0
 325 502 337 488 351 488 c 0
 369 488 384 502 385 502 c 2
 402 485 l 1
 345 428 l 2
 345 428 344 428 343 427 c 2
 343 197 l 1
 358 195 369 192 377 188 c 1
 377 418 l 1
 434 475 l 1
 466 502 l 1
 615 433 l 1
 632 416 l 1
 575 359 l 1
 573 358 l 1
 582 351 l 1
 599 334 l 1
 599 185 l 1
 615 172 l 1
 648 199 l 1
 665 182 l 1
 608 125 l 1
 575 98 l 1
 542 125 l 1
 525 142 l 1
 525 291 l 1
 510 303 l 1
 509 304 l 1
 476 277 l 1
 459 294 l 1
EndSplineSet
EndChar
StartChar: ordmasculine
Encoding: 186 186 211
Width: 480
Flags: W
HStem: 136 128<95 177 233 385>
VStem: 56 128<411.793 545> 296 128<455 588.207>
LayerCount: 2
Back
SplineSet
240 700 m 25
 120 580 l 25
 120 420 l 25
 240 300 l 25
 360 420 l 25
 360 580 l 25
 240 700 l 25
60 200 m 25
 420 200 l 1049
EndSplineSet
Fore
SplineSet
-4 165 m 1
 95 264 l 1
 177 264 l 1
 56 385 l 1
 56 545 l 1
 275 764 l 1
 424 615 l 1
 424 455 l 1
 233 264 l 1
 455 264 l 1
 484 235 l 1
 385 136 l 1
 25 136 l 1
 -4 165 l 1
205 636 m 1
 184 615 l 1
 184 455 l 2
 184 406 248 391 275 364 c 1
 296 385 l 1
 296 545 l 2
 296 594 232 609 205 636 c 1
EndSplineSet
EndChar
StartChar: Eth
Encoding: 208 208 180
Width: 840
Flags: W
HStem: -64 21G<5 40 440.111 588.762> -14 128<130.592 220 260 331> 486 21G<5 43> 536 128<100 188.11>
VStem: 220 40<114 254 389 512> 326 128<185 246.458 383 515> 656 128<136 424>
AnchorPoint: "blwmark" 420 0 basechar 0
AnchorPoint: "abvmark" 480 700 basechar 0
LayerCount: 2
Back
SplineSet
60 550 m 1
 60 550 101 600 149 600 c 3
 192 600 214 575 240 575 c 3
 274 575 300 600 301 600 c 1025
240 550 m 1
 240 75 l 1025
390 150 m 1
 390 550 l 1
 450 600 l 1
 720 475 l 1
 720 101 l 1
 600 0 l 17
 600 0 419 50 180 50 c 3
 97 50 60 0 60 0 c 1033
120 275 m 17
 120 275 168 325 210 325 c 27
 305 325 355 300 450 300 c 27
 492 300 540 350 540 350 c 1033
EndSplineSet
Fore
SplineSet
85 211 m 1
 56 240 l 1
 56 240 56 240 57 241 c 2
 156 340 l 2
 162 346 190 373 220 384 c 1
 220 512 l 1
 215 511 210 511 205 511 c 0
 179 511 157 536 114 536 c 0
 86 536 60 518 43 504 c 2
 25 486 l 1
 -4 515 l 1
 -4 515 0 519 5 524 c 2
 104 623 l 2
 118 637 149 664 184 664 c 0
 227 664 249 639 275 639 c 0
 309 639 335 664 336 664 c 2
 365 635 l 1
 266 536 l 2
 266 536 263 534 260 532 c 2
 260 389 l 1
 284 388 306 386 326 383 c 1
 326 515 l 1
 425 614 l 1
 485 664 l 1
 755 539 l 1
 784 510 l 1
 784 136 l 1
 685 37 l 1
 565 -64 l 1
 565 -64 451 -32 284 -19 c 0
 241 -16 194 -14 145 -14 c 0
 92 -14 58 -34 40 -49 c 2
 25 -64 l 1
 -4 -35 l 2
 -4 -35 -2 -32 2 -28 c 2
 3 -28 l 2
 102 71 l 2
 116 85 152 114 215 114 c 0
 217 114 219 114 220 114 c 2
 220 259 l 1
 206 260 191 261 175 261 c 0
 139 261 98 223 87 213 c 2
 85 211 l 1
376 107 m 1
 531 93 635 64 635 64 c 1
 656 82 l 1
 656 424 l 1
 454 518 l 1
 454 365 l 1
 464 364 474 364 485 364 c 0
 522 364 563 402 573 412 c 2
 575 414 l 1
 604 385 l 1
 604 385 604 385 603 384 c 2
 504 285 l 2
 499 280 479 260 454 247 c 1
 454 185 l 1
 376 107 l 1
331 110 m 1
 326 115 l 1
 326 243 l 1
 304 246 282 251 260 254 c 1
 260 113 l 1
 284 112 308 111 331 110 c 1
EndSplineSet
EndChar
StartChar: Oslash
Encoding: 216 216 182
Width: 960
Flags: W
HStem: -64 128<381.805 446 503 519> 644 20G<369.699 415 543 606.5 851 895>
VStem: 86 128<219.048 365.204> 340 40<102 148 252 443 546 551> 447 128<135 237 307 344 414 515> 720 128<232.542 405.858>
AnchorPoint: "abvmark" 540 700 basechar 0
LayerCount: 2
Back
SplineSet
840 600 m 25
 120 0 l 1049
360 550 m 1
 360 100 l 1025
512 550 m 1
 510 100 l 1025
360 600 m 1
 360 600 150 480 150 300 c 3
 150 134 264 0 480 0 c 3
 623 0 784 142 784 300 c 3
 784 512 673 600 540 600 c 3
 436 600 360 492 360 492 c 1025
EndSplineSet
Fore
SplineSet
904 635 m 1
 805 536 l 1
 800 532 l 1
 830 485 848 420 848 335 c 0
 848 259 812 187 757 132 c 2
 756 132 l 1
 657 33 l 2
 598 -26 519 -64 445 -64 c 0
 336 -64 253 -29 197 26 c 0
 195 28 l 1
 85 -64 l 1
 56 -35 l 1
 155 64 l 1
 157 66 l 1
 110 119 86 189 86 265 c 0
 86 354 137 429 190 482 c 0
 191 482 l 2
 290 581 l 2
 342 633 395 664 395 664 c 1
 424 635 l 1
 380 592 l 1
 380 546 l 1
 425 591 l 2
 457 623 511 664 575 664 c 0
 638 664 696 645 740 601 c 2
 767 574 l 1
 875 664 l 1
 904 635 l 1
463 530 m 1
 435 522 410 509 390 494 c 2
 380 484 l 1
 380 252 l 1
 447 307 l 1
 448 515 l 1
 463 530 l 1
446 69 m 1
 447 237 l 1
 380 182 l 1
 380 85 l 1
 400 78 423 72 446 69 c 1
503 64 m 2
 507 64 511 64 515 64 c 0
 568 64 624 84 672 116 c 1
 702 161 720 212 720 265 c 0
 720 336 707 393 686 437 c 1
 575 344 l 1
 574 135 l 1
 503 64 l 2
576 527 m 1
 575 414 l 1
 658 483 l 2
 657 484 656 485 655 486 c 0
 631 505 605 519 576 527 c 1
340 551 m 1
 325 536 l 1
 325 536 304 523 275 501 c 1
 241 455 214 399 214 335 c 0
 214 269 232 208 268 158 c 1
 340 218 l 1
 340 443 l 1
 325 428 l 1
 296 457 l 1
 296 457 307 473 326 492 c 2
 340 505 l 1
 340 551 l 1
340 102 m 1
 340 148 l 1
 307 121 l 1
 317 114 328 108 340 102 c 1
EndSplineSet
EndChar
StartChar: Thorn
Encoding: 222 222 178
Width: 840
Flags: W
HStem: -214 128<39.7835 168.348> 444 20G<465 528.2> 444 20G<465 528.2> 486 21G<5 43> 536 128<100 188.11>
VStem: 220 40<-100 -9 39 512> 326 128<-15 21 164 318 433 505>
AnchorPoint: "abvmark" 480 700 basechar 0
LayerCount: 2
Back
SplineSet
300 50 m 17
 300 50 369 100 420 100 c 27
 511 100 600 50 600 50 c 1
 720 170 l 1
 720 275 l 1
 450 400 l 1
 390 340 l 1025
60 550 m 1
 60 550 101 600 149 600 c 3
 192 600 214 575 240 575 c 3
 274 575 300 600 301 600 c 1025
240 550 m 1
 240 -125 l 1025
450 600 m 1
 390 540 l 1
 390 -50 l 1
 240 -200 l 1
 240 -200 208 -150 90 -150 c 3
 7 -150 -30 -200 -28 -200 c 1033
EndSplineSet
Fore
SplineSet
-43 -244 m 2xde
 -63 -264 l 1
 -92 -235 l 2
 -92 -235 -90 -231 -85 -226 c 2
 14 -127 l 2
 28 -113 65 -86 125 -86 c 0
 166 -86 197 -92 220 -100 c 1
 220 512 l 1
 215 511 210 511 205 511 c 0
 179 511 157 536 114 536 c 0
 86 536 60 518 43 504 c 2
 25 486 l 1
 -4 515 l 1
 -4 515 0 519 5 524 c 2
 104 623 l 2
 118 637 149 664 184 664 c 0
 227 664 249 639 275 639 c 0
 309 639 335 664 336 664 c 2
 365 635 l 1
 266 536 l 2
 266 536 263 534 260 532 c 2
 260 39 l 1
 326 105 l 1
 326 305 l 1
 326 505 l 1
 485 664 l 1
 514 635 l 1
 454 575 l 1
 454 433 l 1
 485 464 l 1
 755 339 l 1
 784 310 l 1
 784 205 l 1
 565 -14 l 1
 565 -14 516 14 454 28 c 1
 454 -15 l 1
 205 -264 l 1
 191 -250 l 2
 172 -235 132 -214 55 -214 c 0
 8 -214 -24 -230 -43 -244 c 2xde
260 -122 m 2
 263 -125 267 -127 269 -129 c 0
 275 -136 l 1
 326 -85 l 1
 326 21 l 1
 293 6 265 -14 265 -14 c 1
 260 -9 l 1
 260 -122 l 2
454 318 m 1
 454 164 l 2
 455 164 l 0
 546 164 635 114 635 114 c 2
 635 114 654 133 656 135 c 2
 656 224 l 1
 454 318 l 1
EndSplineSet
EndChar
StartChar: ae
Encoding: 230 230 189
Width: 660
Flags: W
HStem: 444 20G<225 365 495 545> 444 20G<225 365 495 545>
AnchorPoint: "blwmark" 360 0 basechar 0
AnchorPoint: "abvmark" 360 500 basechar 0
LayerCount: 2
Back
SplineSet
150 220 m 17
 120 310 l 1
 210 400 l 1
 360 375 l 1
 360 150 l 9
 210 0 l 1
 120 90 l 1
 120 160 l 1
 210 250 l 1
 210 250 232.928594192 220 300 220 c 3
 280.995781714 220 360 220 360 220 c 1033
600 120 m 1
 480 0 l 1
 360 80 l 25
 360 280 l 25
 480 400 l 25
 600 320 l 1
 360 80 l 1025
EndSplineSet
Fore
SplineSet
424 173 m 1x00
 530 279 l 1
 445 336 l 1
 424 315 l 1
 424 185 l 1
 424 173 l 1x00
430 121 m 1
 515 64 l 1
 635 184 l 1
 664 155 l 1
 445 -64 l 1
 325 16 l 1
 296 45 l 1
 296 57 l 1
 175 -64 l 1
 56 55 l 1
 56 125 l 1
 101 170 l 1
 86 185 l 1
 56 275 l 1
 245 464 l 1
 395 439 l 1
 424 410 l 1
 424 373 l 1
 515 464 l 1x80
 635 384 l 1
 664 355 l 1
 430 121 l 1
207 276 m 1
 245 314 l 1
 250 309 l 2
 257 303 271 293 296 288 c 1
 296 316 l 1
 188 334 l 1
 207 276 l 1
296 115 m 1
 296 156 l 1
 296 156 196 169 184 178 c 1
 184 125 l 1
 245 64 l 1
 296 115 l 1
EndSplineSet
EndChar
StartChar: eth
Encoding: 240 240 181
Width: 480
Flags: W
HStem: 444 20G<255 287> 444 20G<255 287> 486 128<205 275>
VStem: 56 128<111.793 245> 296 128<155 245>
AnchorPoint: "blwmark" 240 0 basechar 0
AnchorPoint: "abvmark" 300 700 basechar 0
LayerCount: 2
Back
SplineSet
300 610 m 1
 140 450 l 1025
360 280 m 1
 240 400 l 25
 120 280 l 1
 120 120 l 25
 240 0 l 25
 360 120 l 1
 360 450 l 10
 360 510 293 550 240 550 c 0
 187 550 120 549 120 600 c 27
 120 633 180 670 169 650 c 1049
EndSplineSet
Fore
SplineSet
296 245 m 1x38
 205 336 l 1
 184 315 l 1
 184 155 l 2
 184 106 248 91 275 64 c 1
 296 85 l 1
 296 245 l 1x38
287 452 m 2
 286 455 283 459 282 461 c 0
 259 477 230 486 205 486 c 1
 105 386 l 1
 76 415 l 1
 149 488 l 1
 127 490 108 495 96 507 c 2
 67 536 l 2
 60 543 56 552 56 565 c 0
 56 578 66 592 76 602 c 2
 175 701 l 2
 188 714 202 722 205 719 c 2
 234 690 l 2
 235 689 234 688 233 685 c 2
 184 636 l 2
 184 635 l 0
 184 631 184 627 185 623 c 0
 209 614 245 614 275 614 c 1
 335 674 l 1
 364 645 l 1
 323 604 l 1
 339 597 355 588 367 576 c 0
 368 575 l 2
 397 546 l 2
 413 530 424 509 424 485 c 2
 424 155 l 1
 205 -64 l 1
 56 85 l 1
 56 245 l 1
 275 464 l 1xb8
 287 452 l 2
EndSplineSet
EndChar
StartChar: dcroat
Encoding: 273 273 319
Width: 480
Flags: W
HStem: 444 20G<255 287> 464 45G<255 287 465 505> 486 128<186.134 276.503>
VStem: 56 128<111.793 170 228 245> 296 128<155 245>
AnchorPoint: "blwmark" 240 0 basechar 0
AnchorPoint: "abvmark" 300 700 basechar 0
LayerCount: 2
Back
SplineSet
450 465 m 1
 60 75 l 1025
360 280 m 1
 240 400 l 25
 120 280 l 1
 120 120 l 25
 240 0 l 25
 360 120 l 1
 360 450 l 10
 360 510 293 550 240 550 c 0
 187 550 120 549 120 600 c 27
 120 633 180 670 169 650 c 1049
EndSplineSet
Fore
SplineSet
287 452 m 2xb8
 286 455 283 459 282 461 c 0
 259 477 230 486 205 486 c 0
 165 486 117 486 96 507 c 2
 67 536 l 2
 60 543 56 552 56 565 c 0
 56 578 66 592 76 602 c 2
 175 701 l 2
 188 714 202 722 205 719 c 2
 234 690 l 2
 235 689 234 688 233 685 c 2
 184 636 l 2
 184 635 l 0
 184 631 184 627 185 623 c 0
 209 614 245 614 275 614 c 0
 307 614 343 600 367 576 c 0
 368 575 l 2
 397 546 l 2
 413 530 424 509 424 485 c 2
 424 468 l 1
 485 529 l 1
 514 500 l 1
 424 410 l 1
 424 155 l 1
 205 -64 l 1
 77 64 l 1
 25 11 l 1
 -4 40 l 1
 56 100 l 1
 56 245 l 1
 275 464 l 1
 287 452 l 2xb8
249 292 m 1
 205 336 l 1
 184 315 l 1
 184 228 l 1
 249 292 l 1
277 264 m 1
 184 170 l 1
 184 155 l 2
 184 106 248 91 275 64 c 1
 296 85 l 1
 296 245 l 1
 277 264 l 1
EndSplineSet
EndChar
StartChar: Lslash
Encoding: 321 321 288
Width: 840
Flags: W
HStem: -64 21G<5 40 397 585> -14 128<130.592 220 260 331> 486 21G<5 43> 536 128<100 188.11> 544 20G<546.86 595>
VStem: 220 40<114 232 339 512> 326 128<185 308 386 400 478 505> 596 128<158.5 254.5>
AnchorPoint: "abvmark" 480 700 basechar 0
AnchorPoint: "blwmark" 420 0 basechar 0
LayerCount: 2
Back
SplineSet
60 550 m 1
 60 550 101 600 149 600 c 3
 192 600 214 575 240 575 c 3
 274 575 300 600 301 600 c 1025
240 550 m 1
 240 75 l 1025
390 150 m 1
 390 540 l 1
 450 600 l 1025
720 300 m 1
 720 300 660 253.200195312 660 210 c 3
 660 136.799804688 720 121.200195312 720 121.200195312 c 1
 600 0 l 17
 600 0 419 50 180 50 c 3
 97 50 60 0 60 0 c 1033
540 500 m 25
 120 200 l 1049
EndSplineSet
Fore
SplineSet
604 535 m 1xef
 505 436 l 1
 454 400 l 1
 454 185 l 1
 376 107 l 1
 523 94 624 67 634 64 c 1
 649 79 l 1
 622 107 l 2
 609 120 596 142 596 175 c 0
 596 202 618 229 636 247 c 2
 735 346 l 2
 746 357 755 364 755 364 c 1
 784 335 l 1
 748 299 l 2
 735 282 724 264 724 245 c 0
 724 223 730 205 737 193 c 1
 747 187 755 185 755 185 c 1
 784 156 l 1
 664 35 l 1
 565 -64 l 1
 565 -64 384 -14 145 -14 c 0
 92 -14 58 -34 40 -49 c 2
 25 -64 l 1
 -4 -35 l 2
 -4 -35 -2 -32 2 -28 c 2
 3 -28 l 2
 102 71 l 2
 116 85 152 114 215 114 c 0
 217 114 219 114 220 114 c 2
 220 232 l 1
 85 136 l 1
 56 165 l 1
 155 264 l 1
 220 310 l 1
 220 512 l 1
 215 511 210 511 205 511 c 0
 179 511 157 536 114 536 c 0
 86 536 60 518 43 504 c 2
 25 486 l 1
 -4 515 l 1
 -4 515 0 519 5 524 c 2
 104 623 l 2
 118 637 149 664 184 664 c 0
 227 664 249 639 275 639 c 0
 309 639 335 664 336 664 c 2
 365 635 l 1
 266 536 l 2
 266 536 263 534 260 532 c 2
 260 339 l 1
 326 386 l 1
 326 505 l 1
 485 664 l 1xf7
 514 635 l 1
 454 575 l 1
 454 478 l 1
 575 564 l 1
 604 535 l 1xef
326 308 m 1
 260 261 l 1
 260 113 l 1
 284 112 308 111 331 110 c 1
 326 115 l 1
 326 308 l 1
EndSplineSet
EndChar
StartChar: lslash
Encoding: 322 322 291
Width: 240
Flags: W
HStem: 474 20G<225 265>
VStem: 56 128<85 247 305 375 433 540>
LayerCount: 2
Back
SplineSet
210 430 m 25
 30 250 l 1049
80 80 m 25
 160 0 l 25
 240 80 l 1049
80 625 m 25
 160 545 l 1049
120 585 m 9
 120 40 l 1049
EndSplineSet
Fore
SplineSet
16 590 m 1
 115 689 l 1
 155 649 l 1
 184 620 l 1
 224 580 l 1
 184 540 l 1
 184 433 l 1
 245 494 l 1
 274 465 l 1
 184 375 l 1
 184 75 l 1
 195 64 l 1
 275 144 l 1
 304 115 l 1
 125 -64 l 1
 85 -24 l 1
 56 5 l 1
 16 45 l 1
 56 85 l 1
 56 247 l 1
 -5 186 l 1
 -34 215 l 1
 56 305 l 1
 56 550 l 1
 16 590 l 1
EndSplineSet
EndChar
StartChar: Eng
Encoding: 330 330 599
Width: 840
Flags: W
HStem: -214 128<141.982 459.487> -64 21G<5 40 281 315> -14 128<130.592 219.251> 486 21G<5 43> 536 128<100 188.11>
VStem: 220 40<114 512> 326 128<95 505> 626 128<-45 426>
AnchorPoint: "abvmark" 480 700 basechar 0
LayerCount: 2
Back
SplineSet
60 550 m 1
 60 550 101 600 149 600 c 3
 192 600 214 575 240 575 c 3
 274 575 300 600 301 600 c 1025
240 550 m 1
 240 75 l 1025
60 0 m 17
 60 0 97 50 180 50 c 3
 298 50 330 0 330 0 c 1
 390 60 l 1
 390 540 l 1
 450 600 l 1
 690 475 l 1
 690 -80 l 1
 570 -200 l 1
 570 -200 494 -150 300 -150 c 3
 79 -150 60 -200 60 -200 c 1033
EndSplineSet
Fore
SplineSet
25 -64 m 1
 -4 -35 l 1
 -4 -35 -1 -32 3 -28 c 2
 102 71 l 2
 116 85 152 114 215 114 c 0
 217 114 219 114 220 114 c 2
 220 512 l 1
 215 511 210 511 205 511 c 0
 179 511 157 536 114 536 c 0
 86 536 60 518 43 504 c 2
 25 486 l 1
 -4 515 l 1
 -4 515 0 519 5 524 c 2
 104 623 l 2
 118 637 149 664 184 664 c 0
 227 664 249 639 275 639 c 0
 309 639 335 664 336 664 c 2
 365 635 l 1
 266 536 l 2
 266 536 263 534 260 532 c 2
 260 111 l 1
 289 107 311 100 326 93 c 1
 326 505 l 1
 485 664 l 1
 725 539 l 1
 754 510 l 1
 754 -45 l 1
 535 -264 l 1
 535 -264 459 -214 265 -214 c 0
 116 -214 59 -236 38 -251 c 1
 25 -264 l 1
 -4 -235 l 2
 -4 -235 -3 -233 1 -229 c 2
 100 -130 l 2
 113 -117 162 -86 335 -86 c 0
 529 -86 605 -136 605 -136 c 1
 626 -115 l 1
 626 426 l 1
 454 516 l 1
 454 95 l 1
 295 -64 l 1
 281 -50 l 2
 262 -35 222 -14 145 -14 c 0
 92 -14 58 -34 40 -49 c 2
 25 -64 l 1
EndSplineSet
EndChar
StartChar: OE
Encoding: 338 338 116
Width: 1500
Flags: W
HStem: -64 128<351.805 416 473 489 981.805 1046 1103 1148.71> 486 128<1212 1308.5> 644 20G<339.699 385 513 576.5 969.699 1015 1145 1196 1366 1406>
VStem: 56 128<216.403 365.204> 310 40<102 443 546 551> 416 128<135 515> 686 132<231.516 417.017> 940 40<102 441 541 551> 1046 128<135 274 387 465>
AnchorPoint: "blwmark" 720 0 basechar 0
AnchorPoint: "abvmark" 780 700 basechar 0
LayerCount: 2
Back
SplineSet
1110 300 m 25
 1110 300 1166 350 1200 350 c 27
 1242 350 1218 300 1260 300 c 3
 1309 300 1350 350 1351 350 c 1049
960 550 m 1
 960 100 l 1025
1110 500 m 1
 1110 100 l 1025
960 600 m 1
 960 600 750 480 750 300 c 3
 750 134 864 0 1080 0 c 3
 1223 0 1381 150 1382 150 c 1025
960 492 m 1
 960 492 1074 600 1146 600 c 3
 1223 600 1190 550 1260 550 c 3
 1318 550 1350 600 1351 600 c 1025
330 550 m 1
 330 100 l 1025
482 550 m 1
 480 100 l 1025
330 600 m 1
 330 600 120 480 120 300 c 3
 120 134 234 0 450 0 c 3
 593 0 754 142 754 300 c 3
 754 512 643 600 510 600 c 3
 406 600 330 492 330 492 c 1025
EndSplineSet
Fore
SplineSet
433 530 m 1
 405 522 380 509 360 494 c 2
 350 484 l 1
 350 85 l 1
 370 78 393 72 416 69 c 1
 418 515 l 1
 433 530 l 1
473 64 m 2
 477 64 481 64 485 64 c 0
 538 64 594 84 642 116 c 1
 665 151 682 190 688 231 c 0
 687 242 686 254 686 265 c 0
 686 277 687 289 689 301 c 0
 684 383 660 444 625 486 c 1
 601 505 575 519 546 527 c 1
 544 135 l 1
 473 64 l 2
310 551 m 1
 295 536 l 1
 295 536 274 523 245 501 c 1
 211 455 184 399 184 335 c 0
 184 260 207 192 252 140 c 0
 269 125 289 113 310 102 c 1
 310 443 l 1
 295 428 l 1
 266 457 l 1
 266 457 277 473 296 492 c 2
 310 505 l 1
 310 551 l 1
350 592 m 1
 350 546 l 1
 395 591 l 2
 427 623 481 664 545 664 c 0
 608 664 666 645 710 601 c 2
 739 571 l 2
 761 549 781 520 794 485 c 1
 890 581 l 2
 942 633 995 664 995 664 c 1
 1024 635 l 1
 980 592 l 1
 980 541 l 1
 995 556 l 1
 995 556 1109 664 1181 664 c 0
 1211 664 1224 656 1233 647 c 2
 1259 621 l 2
 1267 617 1278 614 1295 614 c 0
 1322 614 1343 625 1358 636 c 2
 1386 664 l 2
 1415 635 l 2
 1413 633 1410 628 1402 620 c 2
 1401 619 l 2
 1302 520 l 2
 1287 505 1261 486 1225 486 c 0
 1199 486 1187 493 1179 501 c 2
 1174 506 l 1
 1174 387 l 1
 1193 400 1217 414 1235 414 c 0
 1245 414 1251 411 1255 407 c 2
 1284 378 l 2
 1285 378 l 2
 1289 374 1291 368 1293 364 c 0
 1294 364 1294 364 1295 364 c 0
 1329 364 1359 388 1374 402 c 2
 1385 413 l 2
 1385 414 l 0
 1386 414 l 2
 1415 385 l 1
 1412 382 l 2
 1411 381 1410 380 1409 379 c 2
 1408 378 l 1
 1309 279 l 2
 1295 265 1263 236 1225 236 c 0
 1215 236 1209 239 1205 243 c 2
 1176 272 l 2
 1175 273 1174 273 1174 274 c 2
 1174 135 l 1
 1103 64 l 2
 1107 64 1111 64 1115 64 c 0
 1258 64 1416 214 1417 214 c 2
 1446 185 l 1
 1347 86 l 2
 1346 86 1188 -64 1045 -64 c 0
 936 -64 853 -29 797 26 c 2
 768 55 l 2
 748 75 731 99 718 124 c 1
 627 33 l 2
 568 -26 489 -64 415 -64 c 0
 306 -64 223 -29 167 26 c 2
 138 55 l 2
 84 109 56 183 56 265 c 0
 56 354 107 429 160 482 c 0
 161 482 l 2
 260 581 l 2
 312 633 365 664 365 664 c 1
 394 635 l 1
 350 592 l 1
816 301 m 0
 822 240 844 184 882 140 c 0
 899 125 919 113 940 102 c 1
 940 441 l 1
 931 433 925 428 925 428 c 2
 896 457 l 1
 940 500 l 1
 940 551 l 1
 925 536 l 1
 925 536 904 523 875 501 c 1
 847 464 825 420 817 371 c 0
 818 359 818 348 818 335 c 0
 818 324 818 312 816 301 c 0
1117 536 m 2
 1115 536 1113 536 1111 536 c 0
 1072 536 1019 503 980 474 c 1
 980 85 l 1
 1000 78 1023 72 1046 69 c 1
 1046 265 l 1
 1046 465 l 1
 1117 536 l 2
EndSplineSet
EndChar
StartChar: HV
Encoding: 502 502 513
Width: 1080
Flags: W
HStem: -64 21G<5 40 281 315 685 735> -14 128<130.592 219.251> 486 21G<5 43> 536 128<100 188.11>
VStem: 220 40<114 512> 326 128<95 200 258 505> 596 128<105 280> 776 128<405.5 492.5> 866 128<216 327.262>
AnchorPoint: "blwmark" 570 0 basechar 0
AnchorPoint: "abvmark" 600 700 basechar 0
LayerCount: 2
Back
SplineSet
60 550 m 1
 60 550 101 600 149 600 c 3
 192 600 214 575 240 575 c 3
 274 575 300 600 301 600 c 1025
240 550 m 1
 240 75 l 1025
450 225 m 1
 600 375 l 1
 660 315 l 1
 660 60 l 1
 750 0 l 1
 930 181.200195312 l 1
 930 378 l 1
 930 378 840 382.799804688 840 450 c 3
 840 516 960 600 960 600 c 1025
450 600 m 1
 390 540 l 1
 390 60 l 1
 330 0 l 1
 330 0 298 50 180 50 c 3
 97 50 60 0 60 0 c 1033
EndSplineSet
Fore
SplineSet
485 664 m 1xfe80
 514 635 l 1
 454 575 l 1
 454 258 l 1
 635 439 l 1
 724 350 l 1
 724 105 l 1
 785 64 l 1
 866 146 l 1
 866 319 l 1xfe80
 852 323 834 331 822 343 c 2
 793 372 l 2
 783 382 776 396 776 415 c 0
 776 447 803 482 832 511 c 2
 931 610 l 2
 962 641 995 664 995 664 c 1
 1024 635 l 1
 925 536 l 1
 925 536 923 535 920 533 c 0
 910 517 904 500 904 485 c 0xff
 904 474 906 466 910 458 c 1
 935 444 965 442 965 442 c 1
 994 413 l 1
 994 216 l 1
 814 35 l 1
 715 -64 l 1
 625 -4 l 1
 596 25 l 1
 596 280 l 1
 565 311 l 1
 454 200 l 1
 454 95 l 1
 295 -64 l 1
 281 -50 l 2
 262 -35 222 -14 145 -14 c 0
 92 -14 58 -34 40 -49 c 2
 25 -64 l 1
 -4 -35 l 2
 -4 -35 -2 -32 2 -28 c 2
 3 -28 l 2
 102 71 l 2
 116 85 152 114 215 114 c 0
 217 114 219 114 220 114 c 2
 220 512 l 1
 215 511 210 511 205 511 c 0
 179 511 157 536 114 536 c 0
 86 536 60 518 43 504 c 2
 25 486 l 1
 -4 515 l 1
 -4 515 0 519 5 524 c 2
 104 623 l 2
 118 637 149 664 184 664 c 0
 227 664 249 639 275 639 c 0
 309 639 335 664 336 664 c 2
 365 635 l 1
 266 536 l 2
 266 536 263 534 260 532 c 2
 260 111 l 1
 288 107 310 100 326 93 c 1
 326 505 l 1
 485 664 l 1xfe80
EndSplineSet
EndChar
StartChar: circumflex
Encoding: 710 710 100
Width: 480
Flags: W
HStem: 461 303
LayerCount: 2
Back
SplineSet
360 525 m 25
 360 525 240 600 240 700 c 1
 240 550 120 525 120 525 c 1025
EndSplineSet
Fore
SplineSet
176 664 m 0
 176 665 l 2
 275 764 l 1
 304 735 l 1
 304 715 309 696 316 679 c 0
 326 657 340 637 355 620 c 0
 377 601 395 589 395 589 c 1
 424 560 l 1
 325 461 l 1
 325 461 298 478 270 506 c 2
 241 535 l 2
 240 536 l 0
 232 544 224 553 216 563 c 1
 155 502 l 2
 122 469 85 461 85 461 c 1
 56 490 l 1
 155 589 l 1
 155 589 158 590 164 592 c 1
 171 611 176 635 176 664 c 0
EndSplineSet
EndChar
StartChar: tilde
Encoding: 732 732 168
Width: 480
Flags: W
HStem: 486 128<227.862 383.5> 511 128<97 252.138> 644 20G<453 475>
LayerCount: 2
Back
SplineSet
60 525 m 17
 60 525 108 575 150 575 c 27
 221 575 259 550 330 550 c 27
 372 550 420 600 420 600 c 1033
EndSplineSet
Fore
SplineSet
25 461 m 1x60
 -4 490 l 1
 -4 490 -4 490 -3 491 c 2
 96 590 l 1
 104 598 147 639 185 639 c 0x60
 256 639 294 614 365 614 c 0
 402 614 443 652 453 662 c 2
 455 664 l 1
 484 635 l 1
 484 635 484 635 483 634 c 2
 384 535 l 2
 377 528 333 486 295 486 c 0xa0
 224 486 186 511 115 511 c 0
 79 511 38 473 27 463 c 2
 25 461 l 1x60
EndSplineSet
EndChar
StartChar: hungarumlaut
Encoding: 733 733 267
Width: 480
Flags: W
HStem: 461 303
LayerCount: 2
Back
SplineSet
420 700 m 17
 420 600 270 525 270 525 c 1049
240 700 m 17
 240 600 90 525 90 525 c 1049
EndSplineSet
Fore
SplineSet
275 764 m 1
 304 735 l 1
 304 695 280 659 251 630 c 2
 152 531 l 2
 109 488 55 461 55 461 c 1
 26 490 l 1
 125 589 l 2
 125 589 140 597 162 611 c 1
 170 627 176 646 176 665 c 1
 275 764 l 1
455 764 m 1
 484 735 l 1
 484 695 460 659 431 630 c 2
 332 531 l 2
 331 530 l 2
 287 487 235 461 235 461 c 2
 206 490 l 1
 305 589 l 2
 305 589 320 597 342 611 c 1
 350 627 356 646 356 665 c 1
 455 764 l 1
EndSplineSet
EndChar
StartChar: figuredash
Encoding: 8210 8210 908
Width: 480
Flags: W
HStem: 136 128<155 325>
LayerCount: 2
Back
SplineSet
120 200 m 25
 360 200 l 1049
EndSplineSet
Fore
SplineSet
56 165 m 1
 155 264 l 1
 395 264 l 1
 424 235 l 1
 325 136 l 1
 85 136 l 1
 56 165 l 1
EndSplineSet
EndChar
StartChar: quoteleft
Encoding: 8216 8216 254
Width: 360
Flags: W
VStem: 71 248
LayerCount: 2
Back
SplineSet
215 395 m 25
 135 475 l 1
 135 555 l 25
 255 675 l 1049
EndSplineSet
Fore
SplineSet
279 430 m 1
 180 331 l 1
 71 440 l 1
 71 520 l 1
 290 739 l 1
 319 710 l 1
 199 590 l 1
 199 510 l 1
 279 430 l 1
EndSplineSet
EndChar
StartChar: quotereversed
Encoding: 8219 8219 928
Width: 360
Flags: W
LayerCount: 2
Back
SplineSet
210 610 m 25
 150 550 l 1
 150 490 l 25
 240 400 l 1049
EndSplineSet
Fore
SplineSet
215 630 m 25
 135 550 l 1
 135 470 l 25
 255 350 l 1049
EndSplineSet
EndChar
StartChar: quotedblright
Encoding: 8221 8221 252
Width: 600
Flags: W
LayerCount: 2
Back
SplineSet
385 630 m 25
 465 550 l 1
 465 470 l 25
 345 350 l 1049
145 630 m 25
 225 550 l 1
 225 470 l 25
 105 350 l 1049
EndSplineSet
Fore
SplineSet
81 595 m 1
 180 694 l 1
 289 585 l 1
 289 505 l 1
 70 286 l 1
 41 315 l 1
 161 435 l 1
 161 515 l 1
 81 595 l 1
321 595 m 1
 420 694 l 1
 529 585 l 1
 529 505 l 1
 310 286 l 1
 281 315 l 1
 401 435 l 1
 401 515 l 1
 321 595 l 1
EndSplineSet
EndChar
StartChar: daggerdbl
Encoding: 8225 8225 263
Width: 480
Flags: W
HStem: 444 20G<75 115 315 415> 444 20G<75 115 315 415> 644 20G<285 325>
VStem: 173 134<102 298>
LayerCount: 2
Back
SplineSet
60 60 m 25
 120 0 l 25
 360 60 l 25
 420 0 l 1049
60 400 m 25
 120 340 l 25
 360 400 l 25
 420 340 l 1049
210 540 m 1
 210 540 227 516 228 500 c 24
 238 383 240 200 240 200 c 1
 240 200 244 383 252 500 c 24
 254 539 270 600 270 600 c 9
 210 540 l 1
270 -140 m 1
 270 -140 253 -116 252 -100 c 24
 242 17 240 200 240 200 c 1
 240 200 236 17 228 -100 c 24
 226 -139 210 -200 210 -200 c 9
 270 -140 l 1
EndSplineSet
Fore
SplineSet
334 -105 m 1xb0
 175 -264 l 1
 146 -235 l 1
 146 -235 162 -174 164 -135 c 0
 166 -107 168 -75 169 -43 c 1
 85 -64 l 1
 -4 25 l 1
 95 124 l 1
 155 64 l 1
 173 69 l 1
 175 125 176 165 176 165 c 2
 176 165 175 225 173 298 c 1
 85 276 l 1
 -4 365 l 1
 95 464 l 1
 155 404 l 1
 168 407 l 1
 167 427 166 447 164 465 c 0
 163 481 146 505 146 505 c 1
 305 664 l 1
 334 635 l 1
 334 635 318 574 316 535 c 0
 314 507 312 475 311 443 c 1
 395 464 l 1
 484 375 l 1
 385 276 l 1
 325 336 l 1
 307 331 l 1
 305 275 304 235 304 235 c 2
 304 235 305 175 307 102 c 1
 395 124 l 1
 484 35 l 1
 385 -64 l 1
 325 -4 l 1
 312 -7 l 1
 313 -27 314 -47 316 -65 c 0
 317 -81 334 -105 334 -105 c 1xb0
EndSplineSet
EndChar
StartChar: bullet
Encoding: 8226 8226 259
Width: 360
Flags: W
HStem: 151 278
VStem: 41 278
LayerCount: 2
Back
SplineSet
145 365 m 25
 255 255 l 25
 215 215 l 25
 105 325 l 25
 145 365 l 25
EndSplineSet
Fore
SplineSet
180 429 m 1
 319 290 l 1
 180 151 l 1
 41 290 l 1
 180 429 l 1
EndSplineSet
EndChar
StartChar: lozengedot
Encoding: 8280 8280 899
Width: 720
Flags: W
LayerCount: 2
Back
SplineSet
500 215 m 25
 580 135 l 1049
320 80 m 25
 400 0 l 1049
320 350 m 25
 400 270 l 1049
140 215 m 25
 220 135 l 1049
EndSplineSet
Fore
SplineSet
76 180 m 1
 175 279 l 1
 284 170 l 1
 185 71 l 1
 76 180 l 1
256 315 m 1
 355 414 l 1
 464 305 l 1
 365 206 l 1
 256 315 l 1
256 45 m 1
 355 144 l 1
 464 35 l 1
 365 -64 l 1
 256 45 l 1
436 180 m 1
 535 279 l 1
 644 170 l 1
 545 71 l 1
 436 180 l 1
EndSplineSet
EndChar
StartChar: bracketangleleft
Encoding: 9296 9296 930
Width: 480
Flags: W
HStem: -214 21G<365 405>
LayerCount: 2
Back
SplineSet
390 675 m 17
 390 675 293.433426836 553.835692695 270 525 c 0
 216 459 60 250 60 250 c 1
 60 250 245 60 300 0 c 0
 319.832255213 -22.1290285409 420 -150 420 -150 c 1033
EndSplineSet
Fore
SplineSet
425 739 m 1
 454 710 l 1
 454 710 357 589 334 560 c 0
 280 494 124 285 124 285 c 1
 124 285 309 95 364 35 c 0
 384 13 484 -115 484 -115 c 1
 385 -214 l 1
 356 -185 l 1
 356 -185 256 -57 236 -35 c 0
 181 25 -4 215 -4 215 c 1
 -4 215 152 424 206 490 c 0
 229 519 326 640 326 640 c 1
 425 739 l 1
EndSplineSet
EndChar
StartChar: bracketwhiteleft
Encoding: 10214 10214 918
Width: 480
Flags: W
HStem: -214 128<184 250 290 385> 636 128<184 250 290 385>
VStem: 56 128<-86 636> 250 40<-86 636>
LayerCount: 2
Back
SplineSet
270 650 m 25
 270 -100 l 1049
420 700 m 25
 120 700 l 25
 120 -150 l 25
 420 -150 l 1033
EndSplineSet
Fore
SplineSet
484 735 m 1
 385 636 l 1
 290 636 l 1
 290 -86 l 1
 455 -86 l 1
 484 -115 l 1
 385 -214 l 1
 85 -214 l 1
 56 -185 l 1
 56 665 l 1
 155 764 l 1
 455 764 l 1
 484 735 l 1
250 636 m 1
 184 636 l 1
 184 -86 l 1
 250 -86 l 1
 250 636 l 1
EndSplineSet
EndChar
StartChar: ruslst
Encoding: 11789 11789 903
Width: 360
Flags: W
LayerCount: 2
Back
SplineSet
60 450 m 25
 300 700 l 1049
EndSplineSet
Fore
SplineSet
25 386 m 1
 -4 415 l 1
 236 665 l 1
 335 764 l 1
 364 735 l 1
 124 485 l 1
 25 386 l 1
EndSplineSet
EndChar
StartChar: brackettopleft
Encoding: 11810 11810 922
Width: 360
Flags: W
HStem: 636 128<184 265>
VStem: 56 128<335 636>
LayerCount: 2
Back
SplineSet
300 700 m 25
 120 700 l 17
 120 300 l 1025
EndSplineSet
Fore
SplineSet
364 735 m 1
 265 636 l 1
 184 636 l 1
 184 335 l 1
 85 236 l 1
 56 265 l 1
 56 665 l 1
 155 764 l 1
 335 764 l 1
 364 735 l 1
EndSplineSet
EndChar
StartChar: Ubracketleft
Encoding: 11814 11814 912
Width: 600
Flags: W
HStem: -64 128<287.624 505> 336 128<286.988 505>
VStem: 56 128<153.027 247.85>
LayerCount: 2
Back
SplineSet
540 400 m 1
 360 400 l 26
 228 400 120 310 120 200 c 27
 120 90 228 0 360 0 c 26
 540 0 l 1025
EndSplineSet
Fore
SplineSet
604 435 m 1
 505 336 l 1
 325 336 l 2
 279 336 236 325 200 307 c 1
 190 285 184 260 184 235 c 0
 184 193 200 154 226 122 c 1
 270 86 329 64 395 64 c 2
 575 64 l 1
 604 35 l 1
 505 -64 l 1
 325 -64 l 2
 251 -64 185 -36 141 8 c 2
 112 37 l 2
 77 72 56 117 56 165 c 0
 56 213 77 258 112 293 c 2
 211 392 l 2
 255 436 321 464 395 464 c 2
 575 464 l 1
 604 435 l 1
EndSplineSet
EndChar
StartChar: Ubracketright
Encoding: 11815 11815 913
Width: 600
Flags: W
HStem: -64 128<95 313.012> 336 128<95 312.376>
VStem: 416 128<152.15 248.072>
LayerCount: 2
Back
SplineSet
60 400 m 1
 240 400 l 26
 372 400 480 310 480 200 c 27
 480 90 372 0 240 0 c 26
 60 0 l 1025
EndSplineSet
Fore
SplineSet
-4 365 m 1
 95 464 l 1
 275 464 l 2
 349 464 415 436 459 392 c 2
 489 362 l 0
 523 327 544 283 544 235 c 0
 544 187 523 142 488 107 c 2
 389 8 l 2
 345 -36 279 -64 205 -64 c 2
 25 -64 l 1
 -4 -35 l 1
 95 64 l 1
 275 64 l 2
 321 64 364 74 400 93 c 1
 410 115 416 140 416 165 c 0
 416 207 400 246 374 278 c 1
 331 314 271 336 205 336 c 2
 25 336 l 1
 -4 365 l 1
EndSplineSet
EndChar
StartChar: a_y
Encoding: 42813 42813 346
Width: 720
Flags: W
HStem: -214 128<339 442.5> 444 20G<225 365 575 615> 444 20G<225 365 575 615>
VStem: 536 128<-115 27 85 315>
AnchorPoint: "abvmark" 360 500 basechar 0
LayerCount: 2
Back
SplineSet
360 150 m 9
 210 0 l 1
 120 90 l 1
 120 160 l 1
 210 250 l 1
 210 250 232.928594192 225 300 225 c 3
 280.995781714 225 360 225 360 225 c 1033
640 320 m 25
 560 400 l 1049
300 -200 m 17
 300 -200 344 -150 390 -150 c 8
 428 -150 471 -200 510 -200 c 24
 543 -200 600 -150 600 -150 c 1
 600 360 l 1025
600 120 m 9
 480 0 l 25
 360 120 l 1
 360 375 l 17
 210 400 l 1
 120 310 l 1
 150 220 l 1033
EndSplineSet
Fore
SplineSet
265 -264 m 1xd0
 236 -235 l 1
 236 -235 238 -232 241 -229 c 2
 340 -130 l 2
 353 -117 389 -86 425 -86 c 0
 460 -86 500 -129 536 -135 c 1
 536 27 l 1
 445 -64 l 1
 310 71 l 1
 175 -64 l 1
 56 55 l 1
 56 125 l 1
 101 170 l 1
 86 185 l 1
 56 275 l 1
 245 464 l 1
 395 439 l 1
 424 410 l 1
 424 260 l 1
 424 185 l 1
 424 155 l 1
 515 64 l 1
 536 85 l 1
 536 325 l 1
 496 365 l 1
 595 464 l 1
 635 424 l 1
 664 395 l 1
 704 355 l 1
 664 315 l 1
 664 155 l 1
 664 -115 l 1
 565 -214 l 1
 565 -214 508 -264 475 -264 c 0
 436 -264 393 -214 355 -214 c 0
 323 -214 293 -238 276 -253 c 2
 265 -264 l 1xd0
296 292 m 1
 296 316 l 1
 188 334 l 1
 207 276 l 1
 245 314 l 1
 246 313 l 2
 249 310 262 298 296 292 c 1
296 115 m 1
 296 161 l 1
 281 161 266 161 265 161 c 0
 221 161 196 172 184 179 c 1
 184 125 l 1
 245 64 l 1
 296 115 l 1
EndSplineSet
LCarets2: 1 360 
Ligature2: "Historic ligatures-1" a y
EndChar
StartChar: psquirrel
Encoding: 42837 42837 870
Width: 600
Flags: W
HStem: -214 21G<185 225> 444 20G<45 85 215 255 375 415> 444 20G<45 85 215 255 375 415>
VStem: 26 128<162.499 293.046> 176 128<-115 -47 112 315> 416 128<155 245>
AnchorPoint: "abvmark" 360 500 basechar 0
LayerCount: 2
Back
SplineSet
240 280 m 25
 360 400 l 1
 480 280 l 25
 480 120 l 1
 360 0 l 1
 360 0 358 50 30 50 c 1
 30 50 90 156 90 200 c 3
 90 332 30 400 30 400 c 1033
200 400 m 25
 280 320 l 1049
240 360 m 1
 240 -150 l 1025
EndSplineSet
Fore
SplineSet
275 424 m 1xdc
 304 395 l 1
 315 384 l 1
 395 464 l 1
 544 315 l 1
 544 155 l 1
 325 -64 l 1
 312 -51 l 2
 310 -50 307 -48 304 -47 c 2
 304 -115 l 1
 205 -214 l 1
 176 -185 l 1
 176 -21 l 1
 131 -17 72 -14 -5 -14 c 1
 -34 15 l 1
 -34 15 26 121 26 165 c 0
 26 297 -34 365 -34 365 c 1
 65 464 l 1
 94 435 l 1
 94 435 154 367 154 235 c 0
 154 206 127 149 109 114 c 1
 133 114 156 113 176 112 c 1
 176 245 l 1
 176 325 l 1
 136 365 l 1
 235 464 l 1
 275 424 l 1xdc
304 315 m 1
 304 100 l 1
 363 90 384 78 391 71 c 2
 396 65 l 1
 416 85 l 1
 416 245 l 1
 325 336 l 1
 304 315 l 1
EndSplineSet
EndChar
StartChar: rrotunda
Encoding: 42843 42843 96
Width: 360
Flags: W
HStem: 444 20G<135 179> 444 20G<135 179>
AnchorPoint: "blwmark" 180 0 basechar 0
AnchorPoint: "abvmark" 180 500 basechar 0
LayerCount: 2
Back
SplineSet
300 60 m 25
 240 0 l 1
 120 180 l 25
 240 300 l 1
 120 400 l 1
 60 340 l 1049
EndSplineSet
Fore
SplineSet
335 124 m 1x80
 364 95 l 1
 205 -64 l 1
 176 -35 l 1
 56 145 l 1
 173 262 l 1
 85 336 l 2
 85 336 31 282 25 276 c 1
 -4 305 l 1
 155 464 l 1
 275 364 l 1
 304 335 l 1
 184 215 l 1
 281 70 l 1
 335 124 l 1x80
EndSplineSet
EndChar
StartChar: etfin
Encoding: 42859 42859 959
Width: 420
Flags: W
HStem: 444 20G<165 215> 444 20G<165 215>
LayerCount: 2
Back
SplineSet
60 310 m 25
 150 400 l 1
 300 300 l 1
 120 120 l 1
 300 100 l 1
 300 40 l 1
 0 -200 l 1025
EndSplineSet
Fore
SplineSet
25 246 m 1x80
 -4 275 l 1
 185 464 l 1
 335 364 l 1
 364 335 l 1
 207 178 l 1
 335 164 l 1
 364 135 l 1
 364 75 l 1
 265 -24 l 1
 -35 -264 l 1
 -64 -235 l 1
 35 -136 l 1
 236 25 l 1
 236 39 l 1
 85 56 l 1
 56 85 l 1
 230 259 l 1
 115 336 l 1
 25 246 l 1x80
EndSplineSet
EndChar
StartChar: con
Encoding: 42863 42863 890
Width: 480
Flags: W
HStem: -214 21G<245 285> 444 20G<255 295> 444 20G<255 295>
VStem: 56 128<111.793 245> 296 128<-55 27 43 288.207>
LayerCount: 2
Back
SplineSet
300 -150 m 25
 360 -90 l 1
 360 280 l 9
 240 400 l 1
 120 280 l 25
 120 120 l 25
 240 0 l 1049
EndSplineSet
Fore
SplineSet
296 43 m 1x98
 296 245 l 2
 296 294 232 309 205 336 c 1
 184 315 l 1
 184 155 l 2
 184 106 248 91 275 64 c 2
 296 43 l 1x98
296 27 m 1
 205 -64 l 1
 56 85 l 1
 56 245 l 1
 275 464 l 1xd8
 424 315 l 1
 424 -55 l 1
 265 -214 l 1
 236 -185 l 1
 296 -125 l 1
 296 27 l 1
EndSplineSet
EndChar
StartChar: num
Encoding: 42868 42868 597
Width: 749
Flags: W
HStem: -214 21G<335 376.667> -64 128<555 646> 444 20G<95 135 285 325> 444 20G<95 135 285 325>
VStem: 56 128<85 285> 296 128<85 309.438>
LayerCount: 2
Back
SplineSet
510 225 m 1
 570 200 l 1
 570 200 570 139 570 100 c 27
 570 3 390 -150 390 -150 c 1025
690 50 m 17
 690 50 667 0 600 0 c 3
 487 0 460 60 460 60 c 1
 400 0 l 25
 320 80 l 1025
360 40 m 1
 360 310 l 25
 270 400 l 1
 120 250 l 1049
80 80 m 25
 160 0 l 1049
160 320 m 25
 80 400 l 1049
120 360 m 9
 120 40 l 1025
EndSplineSet
Fore
SplineSet
725 114 m 1xec
 754 85 l 1
 754 85 749 75 738 64 c 2
 639 -35 l 2
 625 -49 601 -64 565 -64 c 0
 545 -64 528 -62 513 -59 c 0
 511 -61 509 -64 507 -66 c 2
 408 -165 l 2
 407 -166 l 2
 377 -196 355 -214 355 -214 c 2
 326 -185 l 1
 425 -86 l 1
 438 -71 451 -56 462 -40 c 1
 452 -34 444 -28 439 -22 c 2
 423 -6 l 1
 365 -64 l 1
 325 -24 l 1
 296 5 l 1
 256 45 l 1
 296 85 l 1
 296 275 l 2
 296 308 253 318 235 336 c 1
 184 285 l 1
 184 75 l 1
 224 35 l 1
 125 -64 l 1
 85 -24 l 1
 56 5 l 1
 16 45 l 1
 56 85 l 1
 56 215 l 1
 56 325 l 1
 16 365 l 1
 115 464 l 1
 155 424 l 1
 184 395 l 1
 210 369 l 1
 305 464 l 1
 424 345 l 1
 424 75 l 1
 435 64 l 1
 495 124 l 1
 506 113 l 1
 506 148 l 1
 475 161 l 1
 446 190 l 1
 545 289 l 1
 605 264 l 1
 634 235 l 1
 634 135 l 2
 634 114 626 90 612 65 c 1
 619 64 627 64 635 64 c 0
 657 64 674 69 688 77 c 1
 725 114 l 1xec
EndSplineSet
EndChar
StartChar: Rumsmallcap
Encoding: 42870 42870 858
Width: 780
Flags: W
HStem: -214 21G<365 406.667> -64 128<585.5 676> 444 20G<95 135 255 311> 444 20G<95 135 255 311>
VStem: 56 128<93 315>
LayerCount: 2
Back
SplineSet
540 225 m 1
 600 200 l 1
 600 200 600 139 600 100 c 27
 600 3 420 -150 420 -150 c 1025
720 50 m 17
 720 50 697 0 630 0 c 3
 517 0 480 60 480 60 c 9
 420 0 l 1
 420 0 399 85 360 125 c 24
 337 149 270 150 270 150 c 1025
80 80 m 25
 160 0 l 1049
80 400 m 25
 160 320 l 1049
120 360 m 9
 120 40 l 1025
240 120 m 1
 420 300 l 1
 240 400 l 1
 120 280 l 1049
EndSplineSet
Fore
SplineSet
16 365 m 1xe8
 115 464 l 1
 155 424 l 1
 184 395 l 1
 195 384 l 1
 275 464 l 1
 455 364 l 1
 484 335 l 1
 356 207 l 1
 371 203 385 198 394 190 c 0
 395 189 l 2
 423 161 l 2
 424 160 l 0
 444 139 460 106 470 79 c 1
 515 124 l 1
 536 103 l 1
 536 148 l 1
 505 161 l 1
 476 190 l 1
 575 289 l 1
 635 264 l 1
 664 235 l 1
 664 135 l 2
 664 114 656 90 642 65 c 1
 649 64 657 64 665 64 c 0
 687 64 704 69 718 77 c 1
 755 114 l 1
 784 85 l 1
 784 85 779 75 768 64 c 2
 669 -35 l 2
 655 -49 631 -64 595 -64 c 0
 576 -64 558 -62 543 -59 c 0
 541 -61 539 -64 537 -66 c 2
 438 -165 l 2
 437 -166 l 2
 407 -196 385 -214 385 -214 c 2
 356 -185 l 1
 455 -86 l 1
 467 -72 479 -56 490 -41 c 1
 473 -32 462 -23 455 -16 c 2
 444 -5 l 1
 385 -64 l 1
 356 -35 l 1
 356 -35 341 28 312 71 c 1
 283 86 235 86 235 86 c 2
 205 56 l 1
 184 77 l 1
 184 75 l 1
 224 35 l 1
 125 -64 l 1
 85 -24 l 1
 56 5 l 1
 16 45 l 1
 56 85 l 1
 56 245 l 1
 56 325 l 1
 16 365 l 1xe8
184 93 m 1
 206 115 l 1
 305 214 l 1
 348 257 l 1
 205 336 l 1
 184 315 l 1
 184 93 l 1
EndSplineSet
EndChar
StartChar: um
Encoding: 42872 42872 958
Width: 480
Flags: W
HStem: -214 21G<65 105> 444 20G<255 295 432.778 475> 444 20G<255 295 432.778 475>
VStem: 56 128<-115 -45>
LayerCount: 2
Back
SplineSet
120 -150 m 1
 120 -150 120 -58 120 0 c 3
 120 141 420 400 420 400 c 1
 420 400 364 340 330 340 c 0
 277 340 240 400 240 400 c 9
 120 280 l 1
 120 240 l 1
 360 160 l 1
 360 120 l 1
 240 0 l 17
 240 0 180 60 150 60 c 24
 120 60 60 0 60 0 c 1025
EndSplineSet
Fore
SplineSet
267 282 m 1x90
 251 288 237 299 227 309 c 2
 203 334 l 1
 184 315 l 1
 184 294 l 1
 256 270 l 2
 259 273 261 276 264 279 c 2
 267 282 l 1x90
208 117 m 1
 238 101 275 64 275 64 c 1
 296 85 l 1
 296 106 l 1
 216 132 l 1
 213 127 211 122 208 117 c 1
85 -214 m 1
 56 -185 l 1
 56 -36 l 1
 39 -50 25 -64 25 -64 c 1
 -4 -35 l 1
 82 51 l 1
 94 74 110 99 128 123 c 0
 136 133 143 144 151 154 c 1
 85 176 l 1
 56 205 l 1
 56 245 l 1
 275 464 l 1
 304 435 l 1
 304 435 307 431 312 424 c 0
 326 413 345 404 365 404 c 0
 380 404 398 415 415 428 c 0
 439 450 455 464 455 464 c 1xd0
 484 435 l 1
 484 435 482 433 478 429 c 2
 379 330 l 2
 372 323 359 311 345 300 c 0
 345 300 346 300 345 299 c 0
 342 295 335 290 331 285 c 0
 322 275 313 264 304 254 c 1
 395 224 l 1
 424 195 l 1
 424 155 l 1
 205 -64 l 1
 205 -64 196 -56 184 -45 c 1
 184 -115 l 1
 85 -214 l 1
EndSplineSet
EndChar
StartChar: q_rrotunda
Encoding: 59571 59571 965
Width: 720
Flags: W
HStem: -214 21G<305 345> 444 20G<255 295 375 415 495 539> 444 20G<255 295 375 415 495 539>
VStem: 56 128<155 245> 296 128<-115 27 85 133 153 300>
LayerCount: 2
Back
SplineSet
360 120 m 9
 240 0 l 25
 120 120 l 25
 120 280 l 25
 240 400 l 1
 240 400 264 352 300 352 c 24
 336 352 360 400 360 400 c 9
 360 -150 l 1049
660 60 m 25
 600 0 l 1
 480 180 l 25
 600 300 l 1
 480 400 l 1
 420 340 l 1049
EndSplineSet
Fore
SplineSet
695 124 m 1xd8
 724 95 l 1
 565 -64 l 1
 536 -35 l 1
 424 133 l 1
 424 -115 l 1
 325 -214 l 1
 296 -185 l 1
 296 27 l 1
 205 -64 l 1
 56 85 l 1
 56 245 l 1
 275 464 l 1
 304 435 l 1
 304 435 307 430 311 423 c 0
 318 419 326 416 335 416 c 0
 340 416 346 418 350 419 c 2
 395 464 l 1
 424 435 l 1
 424 373 l 1
 515 464 l 1
 635 364 l 1
 664 335 l 1
 544 215 l 1
 641 70 l 1
 695 124 l 1xd8
296 85 m 1
 296 300 l 1
 287 293 277 288 265 288 c 0
 250 288 237 296 227 306 c 0
 226 307 l 2
 201 332 l 1
 184 315 l 1
 184 155 l 1
 275 64 l 1
 296 85 l 1
424 153 m 1
 533 262 l 1
 445 336 l 2
 445 336 435 326 424 315 c 1
 424 153 l 1
EndSplineSet
LCarets2: 1 420 
Ligature2: "Ligatures-1" q rrotunda
EndChar
StartChar: q_v
Encoding: 60113 60113 967
Width: 720
Flags: W
HStem: -214 21G<305 345> 444 20G<255 295 375 415> 444 20G<255 295 375 415 640.5 661> 594 20G<640.5 661>
VStem: 56 128<155 245> 296 128<-115 -43 155 300> 476 128<418 509.5> 536 128<155 335>
LayerCount: 2
Back
SplineSet
360 120 m 9
 240 0 l 25
 120 120 l 25
 120 280 l 25
 240 400 l 1
 240 400 264 352 300 352 c 24
 336 352 360 400 360 400 c 9
 360 -150 l 1049
360 120 m 1
 480 0 l 25
 600 120 l 1
 600 370 l 17
 600 370 540 423 540 472 c 8
 540 521 604 550 606 550 c 1033
EndSplineSet
Fore
SplineSet
296 27 m 1xdd
 205 -64 l 1
 56 85 l 1
 56 245 l 1
 275 464 l 1
 304 435 l 1
 304 435 307 430 311 423 c 0
 318 419 326 416 335 416 c 0
 340 416 346 418 350 419 c 2
 395 464 l 1
 424 435 l 1
 424 155 l 1
 515 64 l 1
 536 85 l 1
 536 335 l 1xdd
 528 342 l 2
 512 358 476 399 476 437 c 0
 476 457 487 473 500 486 c 2
 599 585 l 2
 617 603 640 614 641 614 c 2
 670 585 l 1
 606 521 l 2
 605 517 604 512 604 507 c 0xde
 604 474 630 441 648 421 c 2
 664 405 l 1
 664 155 l 1
 445 -64 l 1
 424 -43 l 1
 424 -115 l 1
 325 -214 l 1
 296 -185 l 1
 296 27 l 1xdd
296 85 m 1
 296 300 l 1
 287 293 277 288 265 288 c 0
 250 288 237 296 227 306 c 0
 226 307 l 2
 201 332 l 1
 184 315 l 1
 184 155 l 1
 275 64 l 1
 296 85 l 1
EndSplineSet
LCarets2: 1 360 
Ligature2: "Ligatures-1" q v
EndChar
StartChar: g_p
Encoding: 60114 60114 501
Width: 720
Flags: W
HStem: -214 128<99 209> 444 20G<255 295 375 415 495 535> 444 20G<255 295 375 415 495 535>
VStem: 56 128<155 245> 296 128<-110 -43 124 302> 536 128<155 288.207>
CounterMasks: 1 1c
LayerCount: 2
Back
SplineSet
300 0 m 1
 300 0 355 60 390 60 c 0
 425 60 480 0 480 0 c 9
 600 120 l 1
 600 280 l 25
 480 400 l 1
 360 280 l 1049
60 -200 m 17
 60 -200 104 -150 150 -150 c 8
 201 -150 219 -200 270 -200 c 24
 310 -200 360 -150 360 -150 c 9
 360 400 l 1
 360 400 330 352 300 352 c 24
 270 352 240 400 240 400 c 1
 120 280 l 25
 120 120 l 25
 210 0 l 1
 360 150 l 1049
360 -150 m 9
 420 -200 l 1025
EndSplineSet
Fore
SplineSet
296 302 m 1x9c
 287 294 276 288 265 288 c 0
 251 288 238 298 227 309 c 2
 202 333 l 1
 184 315 l 1
 184 155 l 1
 249 68 l 1
 296 115 l 1
 296 245 l 1
 296 302 l 1x9c
296 57 m 1
 175 -64 l 1
 146 -35 l 1
 56 85 l 1
 56 245 l 1
 275 464 l 1
 304 435 l 2
 304 435 306 431 311 425 c 0
 318 420 327 416 335 416 c 0
 340 416 345 417 351 420 c 2
 395 464 l 1
 424 435 l 1
 424 373 l 1
 515 464 l 1xdc
 664 315 l 1
 664 155 l 1
 445 -64 l 1
 429 -48 l 2
 427 -46 426 -45 424 -43 c 2
 424 -110 l 1
 455 -136 l 1
 484 -165 l 1
 385 -264 l 1
 325 -214 l 1
 325 -214 275 -264 235 -264 c 0
 184 -264 166 -214 115 -214 c 0
 83 -214 53 -238 36 -253 c 2
 25 -264 l 1
 -4 -235 l 1
 -4 -235 -2 -232 1 -229 c 2
 100 -130 l 2
 113 -117 149 -86 185 -86 c 0
 233 -86 253 -130 296 -135 c 1
 296 -35 l 1
 290 -40 286 -44 281 -48 c 2
 265 -64 l 1
 236 -35 l 1
 236 -35 238 -32 243 -27 c 2
 296 25 l 1
 296 57 l 1
424 315 m 1
 424 124 l 2
 425 124 l 0
 452 124 492 88 508 72 c 2
 515 64 l 1
 536 85 l 1
 536 245 l 2
 536 294 472 309 445 336 c 1
 424 315 l 1
EndSplineSet
LCarets2: 1 360 
Ligature2: "Historic ligatures-1" g p
EndChar
StartChar: k_longs
Encoding: 60334 60334 566
Width: 509
Flags: W
HStem: -214 128<-111 -14> 469 20G<365 405> 526 21G<310 339> 586 68<391.109 416>
VStem: 86 128<-115 198 282 495> 326 128<85 154>
LayerCount: 2
Back
SplineSet
-150 -200 m 17
 -150 -200 -106 -150 -60 -150 c 8
 -35 -150 33 -200 60 -200 c 24
 86 -200 150 -150 150 -150 c 1
 150 530 l 1
 270 650 l 17
 270 650 300 590 360 590 c 24
 388 590 450 650 451 650 c 1033
350 80 m 25
 430 0 l 1049
270 275 m 1
 390 200 l 1
 390 40 l 1025
150 200 m 1
 390 350 l 9
 390 385 l 1049
350 425 m 25
 430 345 l 1049
EndSplineSet
Fore
SplineSet
286 390 m 1
 385 489 l 1
 425 449 l 1
 454 420 l 1
 494 380 l 1
 396 282 l 1
 425 264 l 1
 454 235 l 1
 454 75 l 1
 494 35 l 1
 395 -64 l 1
 355 -24 l 1
 326 5 l 1
 286 45 l 1
 326 85 l 1
 326 154 l 1
 235 211 l 1
 214 198 l 1
 214 -115 l 1
 115 -214 l 1
 115 -214 51 -264 25 -264 c 0
 -2 -264 -70 -214 -95 -214 c 0
 -127 -214 -157 -238 -174 -253 c 2
 -185 -264 l 1
 -214 -235 l 1
 -214 -235 -212 -232 -209 -229 c 2
 -110 -130 l 2
 -97 -117 -61 -86 -25 -86 c 0
 -3 -86 56 -127 86 -135 c 1
 86 165 l 1
 86 495 l 1
 305 714 l 1
 334 685 l 1
 334 685 337 679 343 671 c 0
 357 661 374 654 395 654 c 0
 423 654 485 714 486 714 c 2
 515 685 l 1
 416 586 l 2
 415 586 353 526 325 526 c 0
 295 526 273 541 258 556 c 0
 257 556 l 2
 231 582 l 1
 214 565 l 1
 214 282 l 1
 325 351 l 1
 286 390 l 1
372 304 m 1
 368 299 l 1
 390 286 l 1
 372 304 l 1
EndSplineSet
LCarets2: 1 270 
Ligature2: "Historic ligatures-1" k longs
EndChar
StartChar: b_b
Encoding: 61122 61122 349
Width: 720
GlyphClass: 3
Flags: W
HStem: 444 20G<255 295 495 535> 444 20G<255 295 495 535>
VStem: 56 128<111.793 315 373 540> 296 128<111.793 288.207 443 540> 536 128<155 288.207>
CounterMasks: 1 38
LayerCount: 2
Back
SplineSet
320 625 m 25
 400 545 l 1049
360 585 m 9
 360 120 l 25
 480 0 l 25
 600 120 l 25
 600 280 l 25
 480 400 l 1
 360 280 l 1049
80 625 m 25
 160 545 l 1049
120 585 m 9
 120 120 l 25
 240 0 l 25
 360 120 l 25
 360 280 l 25
 240 400 l 1
 120 280 l 1049
EndSplineSet
Fore
SplineSet
184 315 m 1x38
 184 155 l 2
 184 106 248 91 275 64 c 1
 296 85 l 1
 296 245 l 1
 296 294 232 309 205 336 c 1
 184 315 l 1x38
184 373 m 1
 275 464 l 1
 296 443 l 1
 296 550 l 1
 256 590 l 1
 355 689 l 1
 395 649 l 1
 424 620 l 1
 464 580 l 1
 424 540 l 1
 424 373 l 1
 515 464 l 1xb8
 664 315 l 1
 664 155 l 1
 445 -64 l 1
 325 56 l 1
 205 -64 l 1
 56 85 l 1
 56 550 l 1
 16 590 l 1
 115 689 l 1
 155 649 l 1
 184 620 l 1
 224 580 l 1
 184 540 l 1
 184 373 l 1
424 315 m 1
 424 155 l 2
 424 106 488 91 515 64 c 1
 536 85 l 1
 536 245 l 2
 536 294 472 309 445 336 c 1
 424 315 l 1
EndSplineSet
LCarets2: 1 360 
Ligature2: "Historic ligatures-1" b b
EndChar
StartChar: f_j
Encoding: 61129 61129 322
Width: 540
GlyphClass: 3
Flags: W
HStem: -214 128<-111 -1> 336 128<214 345> 466 21G<355 395>
VStem: 86 128<-115 336 464 495> 356 128<-55 315>
LayerCount: 2
Back
SplineSet
420 360 m 1
 420 -90 l 9
 340 -170 l 1049
60 400 m 1
 380 400 l 25
 460 320 l 1025
-150 -200 m 1
 -150 -200 -106 -150 -60 -150 c 8
 -9 -150 9 -200 60 -200 c 24
 100 -200 150 -150 150 -150 c 1
 150 530 l 1
 270 650 l 1
 270 650 330 610 490 610 c 9
 410 530 l 1025
EndSplineSet
Fore
SplineSet
-185 -264 m 1
 -214 -235 l 1
 -214 -235 -212 -232 -209 -229 c 2
 -110 -130 l 2
 -97 -117 -61 -86 -25 -86 c 0
 23 -86 43 -130 86 -135 c 1
 86 336 l 1
 25 336 l 1
 -4 365 l 1
 86 455 l 1
 86 495 l 1
 305 714 l 1
 305 714 365 674 525 674 c 1
 554 645 l 1
 375 466 l 1
 346 495 l 1
 399 548 l 1
 281 556 235 586 235 586 c 1
 214 565 l 1
 214 464 l 1
 415 464 l 1
 455 424 l 1
 484 395 l 1
 524 355 l 1
 484 315 l 1
 484 -55 l 1
 305 -234 l 1
 276 -205 l 1
 356 -125 l 1
 356 325 l 1
 345 336 l 1
 214 336 l 1
 214 -115 l 1
 115 -214 l 1
 115 -214 65 -264 25 -264 c 0
 -26 -264 -44 -214 -95 -214 c 0
 -127 -214 -157 -238 -174 -253 c 2
 -185 -264 l 1
EndSplineSet
LCarets2: 1 360 
Ligature2: "Ligatures-1" f j
EndChar
StartChar: f_r
Encoding: 61130 61130 352
Width: 660
GlyphClass: 3
Flags: W
HStem: -214 128<-111 -14> 336 128<214 345> 444 20G<555 595> 526 21G<310 339> 586 68<391.109 416>
VStem: 86 128<-115 336 464 495> 356 128<85 315>
LayerCount: 2
Back
SplineSet
-150 -200 m 1
 -150 -200 -106 -150 -60 -150 c 8
 -35 -150 33 -200 60 -200 c 24
 86 -200 150 -150 150 -150 c 1
 150 530 l 1
 270 650 l 17
 270 650 300 590 360 590 c 24
 388 590 450 650 451 650 c 1025
60 400 m 1
 380 400 l 25
 460 320 l 1025
600 340 m 25
 540 400 l 25
 420 280 l 1049
380 80 m 25
 460 0 l 1049
420 360 m 9
 420 40 l 1025
EndSplineSet
Fore
SplineSet
664 375 m 1xbe
 565 276 l 1
 505 336 l 1
 484 315 l 1
 484 75 l 1
 524 35 l 1
 425 -64 l 1
 385 -24 l 1
 356 5 l 1
 316 45 l 1
 356 85 l 1
 356 245 l 1
 356 325 l 1
 345 336 l 1
 214 336 l 1
 214 -115 l 1
 115 -214 l 1
 115 -214 51 -264 25 -264 c 0
 -2 -264 -70 -214 -95 -214 c 0
 -127 -214 -157 -238 -174 -253 c 2
 -185 -264 l 1
 -214 -235 l 1
 -214 -235 -212 -232 -209 -229 c 2
 -110 -130 l 2
 -97 -117 -61 -86 -25 -86 c 0
 -3 -86 56 -127 86 -135 c 1
 86 336 l 1
 25 336 l 1
 -4 365 l 1
 86 455 l 1
 86 495 l 1
 305 714 l 1
 334 685 l 1
 334 685 337 679 343 671 c 0
 357 661 374 654 395 654 c 0
 423 654 485 714 486 714 c 2
 515 685 l 1
 416 586 l 2
 415 586 353 526 325 526 c 0
 295 526 273 541 258 556 c 0
 257 556 l 2
 231 582 l 1
 214 565 l 1
 214 464 l 1xde
 415 464 l 1
 455 424 l 1
 484 395 l 1
 495 384 l 1
 575 464 l 1
 664 375 l 1xbe
EndSplineSet
LCarets2: 1 360 
Ligature2: "Ligatures-1" f r
EndChar
StartChar: g_g
Encoding: 61137 61137 497
Width: 720
Flags: W
HStem: -264 680<456 577.5> -214 128<99 196> 444 20G<255 295 375 415 495 535 615 655> 444 20G<255 295 375 415 495 535 615 655>
VStem: 56 128<111.793 245> 296 128<-94.9086 -43 111.793 300> 536 128<-115 27 85 300>
CounterMasks: 1 0e
LayerCount: 2
Back
SplineSet
360 -150 m 8
 383 -130 472 -200 510 -200 c 0
 544 -200 600 -150 600 -150 c 9
 600 400 l 1
 600 400 576 352 540 352 c 24
 504 352 480 400 480 400 c 1
 360 280 l 25
 360 120 l 25
 480 0 l 25
 600 120 l 1041
60 -200 m 17
 60 -200 104 -150 150 -150 c 8
 175 -150 243 -200 270 -200 c 24
 296 -200 360 -150 360 -150 c 9
 360 400 l 1
 360 400 336 352 300 352 c 24
 264 352 240 400 240 400 c 1
 120 280 l 25
 120 120 l 25
 240 0 l 25
 360 120 l 1041
EndSplineSet
Fore
SplineSet
296 300 m 1x0e
 287 293 277 288 265 288 c 0
 250 288 236 297 226 307 c 2
 201 332 l 1
 184 315 l 1
 184 155 l 2
 184 106 248 91 275 64 c 1
 296 85 l 1
 296 245 l 1
 296 300 l 1x0e
296 27 m 1
 205 -64 l 1
 56 85 l 1
 56 245 l 1
 275 464 l 1
 304 435 l 1
 304 435 306 430 311 423 c 0
 318 419 326 416 335 416 c 0
 340 416 345 417 350 419 c 2
 395 464 l 1
 424 435 l 1
 424 373 l 1
 515 464 l 1
 544 435 l 1
 544 435 546 430 551 423 c 0
 558 419 566 416 575 416 c 0xae
 580 416 585 417 590 419 c 2
 635 464 l 1
 664 435 l 1
 664 -115 l 1
 565 -214 l 1x6e
 565 -214 509 -264 475 -264 c 0x8e
 437 -264 348 -194 325 -214 c 1x4e
 325 -214 261 -264 235 -264 c 0x8e
 208 -264 140 -214 115 -214 c 0x4e
 83 -214 53 -238 36 -253 c 2
 25 -264 l 1x8e
 -4 -235 l 1
 -4 -235 -2 -232 1 -229 c 2
 100 -130 l 2
 113 -117 149 -86 185 -86 c 0x4e
 207 -86 266 -127 296 -135 c 1
 296 27 l 1
536 300 m 1
 527 293 517 288 505 288 c 0
 490 288 476 297 466 307 c 2
 441 332 l 1
 424 315 l 1
 424 155 l 2
 424 106 488 91 515 64 c 1
 536 85 l 1
 536 300 l 1
536 27 m 1
 445 -64 l 1
 424 -43 l 1
 424 -86 l 1x4e
 457 -97 506 -129 536 -135 c 1
 536 27 l 1
EndSplineSet
LCarets2: 1 360 
Ligature2: "Historic ligatures-1" g g
EndChar
StartChar: g_eth
Encoding: 61140 61140 499
Width: 480
Flags: W
HStem: -214 128<99 196> 486 128<205 273.967>
VStem: 56 128<111.793 245> 296 128<-115 27 85 300>
LayerCount: 2
Back
SplineSet
300 610 m 1
 140 450 l 1025
360 400 m 1
 360 450 l 2
 360 504.529056756 293 550 240 550 c 0
 187 550 120 549 120 600 c 27
 120 633 180 670 169 650 c 1049
60 -200 m 17
 60 -200 104 -150 150 -150 c 8
 175 -150 243 -200 270 -200 c 24
 296 -200 360 -150 360 -150 c 9
 360 400 l 1
 360 400 336 352 300 352 c 24
 264 352 240 400 240 400 c 1
 120 280 l 25
 120 120 l 25
 240 0 l 25
 360 120 l 1041
EndSplineSet
Fore
SplineSet
296 300 m 1
 287 293 277 288 265 288 c 0
 250 288 236 297 226 307 c 2
 201 332 l 1
 184 315 l 1
 184 155 l 2
 184 106 248 91 275 64 c 1
 296 85 l 1
 296 300 l 1
296 27 m 1
 205 -64 l 1
 56 85 l 1
 56 245 l 1
 275 464 l 1
 253 478 228 486 205 486 c 1
 105 386 l 1
 76 415 l 1
 149 488 l 1
 127 490 108 495 96 507 c 2
 67 536 l 2
 60 543 56 552 56 565 c 0
 56 578 66 592 76 602 c 2
 175 701 l 2
 188 714 202 722 205 719 c 2
 234 690 l 2
 235 689 234 688 233 685 c 2
 184 636 l 2
 184 635 l 0
 184 631 184 627 185 623 c 0
 209 614 245 614 275 614 c 1
 335 674 l 1
 364 645 l 1
 322 603 l 1
 338 596 355 586 367 574 c 2
 396 545 l 2
 413 528 424 507 424 485 c 2
 424 435 l 1
 424 -115 l 1
 325 -214 l 1
 325 -214 261 -264 235 -264 c 0
 208 -264 140 -214 115 -214 c 0
 83 -214 53 -238 36 -253 c 2
 25 -264 l 1
 -4 -235 l 1
 -4 -235 -2 -232 1 -229 c 2
 100 -130 l 2
 113 -117 149 -86 185 -86 c 0
 207 -86 266 -127 296 -135 c 1
 296 27 l 1
277 462 m 2
 284 455 l 2
 283 456 282 458 281 459 c 0
 280 460 279 461 277 462 c 2
EndSplineSet
LCarets2: 1 240 
Ligature2: "Historic ligatures-1" g eth
EndChar
StartChar: t_y
Encoding: 61147 61147 731
Width: 780
Flags: W
HStem: -214 128<399 502.5> 336 128<214 345> 594 20G<165 205> 594 20G<165 205 635 675>
VStem: 86 128<70.7805 336 464 515> 356 128<175 315> 596 128<-115 27 85 315>
LayerCount: 2
Back
SplineSet
700 320 m 25
 620 400 l 1049
360 -200 m 17
 360 -200 404 -150 450 -150 c 8
 488 -150 531 -200 570 -200 c 24
 603 -200 660 -150 660 -150 c 1
 660 360 l 1025
660 120 m 9
 540 0 l 25
 420 120 l 1
 420 360 l 1049
150 550 m 1
 150 60 l 1
 210 0 l 1
 330 120 l 1025
60 400 m 1
 380 400 l 1
 460 320 l 1025
EndSplineSet
Fore
SplineSet
185 614 m 1xee
 214 585 l 1
 214 464 l 1
 415 464 l 1
 455 424 l 1
 484 395 l 1
 524 355 l 1
 484 315 l 1
 484 155 l 1
 575 64 l 1
 596 85 l 1
 596 325 l 1
 556 365 l 1
 655 464 l 1
 695 424 l 1
 724 395 l 1
 764 355 l 1
 724 315 l 1
 724 155 l 1
 724 -115 l 1
 625 -214 l 1
 625 -214 568 -264 535 -264 c 0
 496 -264 453 -214 415 -214 c 0
 383 -214 353 -238 336 -253 c 2
 325 -264 l 1
 296 -235 l 1
 296 -235 298 -232 301 -229 c 2
 400 -130 l 2
 413 -117 449 -86 485 -86 c 0
 520 -86 560 -129 596 -135 c 1
 596 27 l 1
 505 -64 l 1
 356 85 l 1
 356 117 l 1
 175 -64 l 1
 86 25 l 1
 86 336 l 1
 25 336 l 1
 -4 365 l 1
 86 455 l 1
 86 515 l 1
 185 614 l 1xee
214 336 m 1
 214 95 l 2
 214 79 236 73 245 64 c 1
 356 175 l 1
 356 325 l 1
 345 336 l 1
 214 336 l 1
EndSplineSet
LCarets2: 1 360 
Ligature2: "Ligatures-1" t y
EndChar
StartChar: g_o
Encoding: 61150 61150 500
Width: 720
Flags: W
HStem: -214 128<99 196> 444 20G<255 295 375 415 495 535> 444 20G<255 295 375 415 495 535>
VStem: 56 128<111.793 245> 296 128<-115 -43 111.793 300> 536 128<155 288.207>
CounterMasks: 1 1c
LayerCount: 2
Back
SplineSet
480 400 m 25
 360 280 l 25
 360 120 l 25
 480 0 l 25
 600 120 l 25
 600 280 l 25
 480 400 l 25
60 -200 m 17
 60 -200 104 -150 150 -150 c 8
 175 -150 243 -200 270 -200 c 24
 296 -200 360 -150 360 -150 c 9
 360 400 l 1
 360 400 336 352 300 352 c 24
 264 352 240 400 240 400 c 1
 120 280 l 25
 120 120 l 25
 240 0 l 25
 360 120 l 1041
EndSplineSet
Fore
SplineSet
296 300 m 1x9c
 287 293 277 288 265 288 c 0
 250 288 236 297 226 307 c 2
 201 332 l 1
 184 315 l 1
 184 155 l 2
 184 106 248 91 275 64 c 1
 296 85 l 1
 296 245 l 1
 296 300 l 1x9c
296 27 m 1
 205 -64 l 1
 56 85 l 1
 56 245 l 1
 275 464 l 1
 304 435 l 1
 304 435 306 430 311 423 c 0
 318 419 326 416 335 416 c 0
 340 416 345 417 350 419 c 2
 395 464 l 1
 424 435 l 1
 424 373 l 1
 515 464 l 1xdc
 664 315 l 1
 664 155 l 1
 445 -64 l 1
 424 -43 l 1
 424 -115 l 1
 325 -214 l 1
 325 -214 261 -264 235 -264 c 0
 208 -264 140 -214 115 -214 c 0
 83 -214 53 -238 36 -253 c 2
 25 -264 l 1
 -4 -235 l 1
 -4 -235 -2 -232 1 -229 c 2
 100 -130 l 2
 113 -117 149 -86 185 -86 c 0
 207 -86 266 -127 296 -135 c 1
 296 27 l 1
424 155 m 2
 424 106 488 91 515 64 c 1
 536 85 l 1
 536 245 l 2
 536 294 472 309 445 336 c 1
 424 315 l 1
 424 155 l 2
EndSplineSet
LCarets2: 1 360 
Ligature2: "Historic ligatures-1" g o
EndChar
StartChar: a_f
Encoding: 61347 61347 337
Width: 569
GlyphClass: 3
Flags: W
HStem: -214 128<99 196> 336 128<245 296 424 475> 526 21G<520 549> 586 68<601.109 626>
VStem: 296 128<-115 57 115 161 292 336 464 495>
LayerCount: 2
Back
SplineSet
360 150 m 9
 210 0 l 1
 120 90 l 1
 120 160 l 1
 210 250 l 1
 210 250 232.928594192 225 300 225 c 3
 280.995781714 225 360 225 360 225 c 1033
60 -200 m 17
 60 -200 104 -150 150 -150 c 8
 175 -150 243 -200 270 -200 c 24
 296 -200 360 -150 360 -150 c 1
 360 530 l 1
 480 650 l 17
 480 650 510 590 570 590 c 24
 598 590 660 650 661 650 c 1033
510 400 m 1
 210 400 l 17
 120 310 l 1
 150 220 l 1033
EndSplineSet
Fore
SplineSet
574 435 m 1
 475 336 l 1
 424 336 l 1
 424 260 l 1
 424 185 l 1
 424 -115 l 1
 325 -214 l 1
 325 -214 261 -264 235 -264 c 0
 208 -264 140 -214 115 -214 c 0
 83 -214 53 -238 36 -253 c 2
 25 -264 l 1
 -4 -235 l 1
 -4 -235 -2 -232 1 -229 c 2
 100 -130 l 2
 113 -117 149 -86 185 -86 c 0
 207 -86 266 -127 296 -135 c 1
 296 57 l 1
 175 -64 l 1
 56 55 l 1
 56 125 l 1
 101 170 l 1
 86 185 l 1
 56 275 l 1
 245 464 l 1
 296 464 l 1
 296 495 l 1
 515 714 l 1
 544 685 l 1
 544 685 547 679 553 671 c 0
 567 661 584 654 605 654 c 0
 633 654 695 714 696 714 c 2
 725 685 l 1
 626 586 l 2
 625 586 563 526 535 526 c 0
 505 526 483 541 468 556 c 0
 467 556 l 2
 441 582 l 1
 424 565 l 1
 424 464 l 1
 545 464 l 1
 574 435 l 1
296 336 m 1
 187 336 l 1
 207 276 l 1
 245 314 l 1
 246 313 l 2
 249 310 262 298 296 292 c 1
 296 336 l 1
296 115 m 1
 296 161 l 1
 281 161 266 161 265 161 c 0
 221 161 196 172 184 179 c 1
 184 125 l 1
 245 64 l 1
 296 115 l 1
EndSplineSet
LCarets2: 1 360 
Ligature2: "Historic ligatures-1" a f
EndChar
StartChar: a_Rsmallcap
Encoding: 61355 61355 857
Width: 780
Flags: W
HStem: 444 20G<225 365 495 551> 444 20G<225 365 495 551>
VStem: 296 128<115 161 292 315>
LayerCount: 2
Back
SplineSet
720 60 m 25
 660 0 l 1
 660 0 639 85 600 125 c 24
 577 149 510 150 510 150 c 1025
480 120 m 1
 660 300 l 1
 480 400 l 1
 360 280 l 1049
150 220 m 17
 120 310 l 1
 210 400 l 1
 360 375 l 1
 360 30 l 1
 390 0 l 1
 450 60 l 1049
360 150 m 25
 210 0 l 1
 120 90 l 1
 120 160 l 1
 210 250 l 1
 210 250 232.928594192 225 300 225 c 3
 280.995781714 225 360 225 360 225 c 1033
EndSplineSet
Fore
SplineSet
755 124 m 1xa0
 784 95 l 1
 625 -64 l 1
 596 -35 l 1
 596 -35 581 28 552 71 c 1
 538 78 518 82 503 84 c 1
 355 -64 l 1
 296 -5 l 1
 296 57 l 1
 175 -64 l 1
 56 55 l 1
 56 125 l 1
 101 170 l 1
 86 185 l 1
 56 275 l 1
 245 464 l 1
 395 439 l 1
 424 410 l 1
 424 373 l 1
 515 464 l 1
 695 364 l 1
 724 335 l 1
 596 207 l 1
 611 203 625 198 634 190 c 0
 635 189 l 2
 663 161 l 2
 664 160 l 0
 684 139 700 106 710 79 c 1
 755 124 l 1xa0
207 276 m 1
 245 314 l 1
 246 313 l 2
 249 310 262 298 296 292 c 1
 296 316 l 1
 188 334 l 1
 207 276 l 1
296 161 m 1
 281 161 266 161 265 161 c 0
 221 161 196 172 184 179 c 1
 184 125 l 1
 245 64 l 1
 296 115 l 1
 296 161 l 1
424 260 m 1
 424 185 l 1
 424 93 l 1
 446 115 l 1
 545 214 l 1
 588 257 l 1
 445 336 l 2
 445 336 426 317 424 315 c 2
 424 260 l 1
424 77 m 1
 424 65 l 1
 425 64 l 1
 431 70 l 1
 424 77 l 1
EndSplineSet
LCarets2: 1 360 
Ligature2: "Historic ligatures-1" a Rsmallcap
EndChar
StartChar: o_c
Encoding: 61357 61357 668
Width: 660
Flags: W
HStem: 444 20G<255 295 495 535> 444 20G<255 295 495 535>
VStem: 56 128<111.793 245> 296 128<111.793 288.207>
LayerCount: 2
Back
SplineSet
600 280 m 9
 480 400 l 25
 360 280 l 25
 360 120 l 25
 480 0 l 25
 600 120 l 1041
240 400 m 25
 120 280 l 25
 120 120 l 25
 240 0 l 25
 360 120 l 25
 360 280 l 25
 240 400 l 25
EndSplineSet
Fore
SplineSet
205 336 m 1x30
 184 315 l 1
 184 155 l 2
 184 106 248 91 275 64 c 1
 296 85 l 1
 296 245 l 2
 296 294 232 309 205 336 c 1x30
56 245 m 1
 275 464 l 1
 395 344 l 1
 515 464 l 1xb0
 664 315 l 1
 565 216 l 1
 445 336 l 1
 424 315 l 1
 424 155 l 2
 424 106 488 91 515 64 c 1
 635 184 l 1
 664 155 l 1
 445 -64 l 1
 325 56 l 1
 205 -64 l 1
 56 85 l 1
 56 245 l 1
EndSplineSet
LCarets2: 1 360 
Ligature2: "Historic ligatures-1" o c
EndChar
StartChar: m.alt
Encoding: 61987 61987 588
Width: 720
Flags: W
HStem: 444 20G<95 135 285 325 525 565> 444 20G<95 135 285 325 525 565>
VStem: 56 128<85 285> 296 128<85 285> 536 128<-55 309.438>
CounterMasks: 1 38
AnchorPoint: "abvmark" 360 500 basechar 0
LayerCount: 2
Back
SplineSet
320 80 m 25
 400 0 l 1049
360 40 m 1
 360 310 l 25
 270 400 l 1
 120 250 l 1049
80 80 m 25
 160 0 l 1049
160 320 m 25
 80 400 l 1049
120 360 m 9
 120 40 l 1025
520 -170 m 25
 600 -90 l 1
 600 310 l 9
 510 400 l 1
 360 250 l 1049
EndSplineSet
Fore
SplineSet
485 -234 m 1xb8
 456 -205 l 1
 536 -125 l 1
 536 275 l 2
 536 308 493 318 475 336 c 1
 424 285 l 1
 424 75 l 1
 464 35 l 1
 365 -64 l 1
 325 -24 l 1
 296 5 l 1
 256 45 l 1
 296 85 l 1
 296 215 l 1
 296 275 l 2
 296 308 253 318 235 336 c 1
 184 285 l 1
 184 75 l 1
 224 35 l 1
 125 -64 l 1
 85 -24 l 1
 56 5 l 1
 16 45 l 1
 56 85 l 1
 56 215 l 1
 56 325 l 1
 16 365 l 1
 115 464 l 1
 155 424 l 1
 184 395 l 1
 210 369 l 1
 305 464 l 1
 424 345 l 1
 424 343 l 1
 545 464 l 1
 664 345 l 1
 664 -55 l 1
 485 -234 l 1xb8
EndSplineSet
EndChar
StartChar: n.alt
Encoding: 61992 61992 598
Width: 480
Flags: W
HStem: 444 20G<95 135 285 325> 444 20G<95 135 285 325>
VStem: 56 128<85 285> 296 128<-55 309.438>
AnchorPoint: "abvmark" 240 500 basechar 0
LayerCount: 2
Back
SplineSet
80 80 m 25
 160 0 l 1049
160 320 m 25
 80 400 l 1049
120 360 m 9
 120 40 l 1025
280 -170 m 25
 360 -90 l 1
 360 310 l 9
 270 400 l 1
 120 250 l 1049
EndSplineSet
Fore
SplineSet
245 -234 m 1xb0
 216 -205 l 1
 296 -125 l 1
 296 275 l 2
 296 308 253 318 235 336 c 1
 184 285 l 1
 184 75 l 1
 224 35 l 1
 125 -64 l 1
 85 -24 l 1
 56 5 l 1
 16 45 l 1
 56 85 l 1
 56 215 l 1
 56 325 l 1
 16 365 l 1
 115 464 l 1
 155 424 l 1
 184 395 l 1
 210 369 l 1
 305 464 l 1
 424 345 l 1
 424 -55 l 1
 245 -234 l 1xb0
EndSplineSet
EndChar
StartChar: longs_c_h
Encoding: 62714 62714 706
Width: 1020
Flags: W
HStem: -214 128<-111 -14> 444 20G<495 535 825 865> 444 20G<495 535 825 865> 526 21G<310 339> 586 68<391.109 416>
VStem: 86 128<-115 495> 296 128<111.793 245> 596 128<85 87 145 247 383 540> 836 128<85 309.438>
LayerCount: 2
Back
SplineSet
-150 -200 m 17
 -150 -200 -106 -150 -60 -150 c 8
 -35 -150 33 -200 60 -200 c 24
 86 -200 150 -150 150 -150 c 1
 150 530 l 1
 270 650 l 17
 270 650 300 590 360 590 c 24
 388 590 450 650 451 650 c 1033
600 280 m 9
 480 400 l 25
 360 280 l 25
 360 120 l 25
 480 0 l 25
 600 120 l 1041
860 80 m 25
 940 0 l 1049
620 80 m 25
 700 0 l 1049
620 625 m 25
 700 545 l 1049
660 585 m 9
 660 40 l 1049
900 40 m 25
 900 310 l 25
 810 400 l 1
 660 250 l 1049
EndSplineSet
Fore
SplineSet
556 590 m 1xdf80
 655 689 l 1
 695 649 l 1
 724 620 l 1
 764 580 l 1
 724 540 l 1
 724 343 l 1
 845 464 l 1
 964 345 l 1
 964 75 l 1
 1004 35 l 1
 905 -64 l 1
 865 -24 l 1
 836 5 l 1
 796 45 l 1
 836 85 l 1
 836 275 l 2
 836 308 793 318 775 336 c 1
 724 285 l 1
 724 75 l 1
 764 35 l 1
 665 -64 l 1
 625 -24 l 1
 596 5 l 1
 556 45 l 1
 596 85 l 1
 596 87 l 1
 445 -64 l 1
 296 85 l 1
 296 245 l 1
 515 464 l 1
 596 383 l 1
 596 550 l 1
 556 590 l 1xdf80
-185 -264 m 1
 -214 -235 l 1
 -214 -235 -212 -232 -209 -229 c 2
 -110 -130 l 2
 -97 -117 -61 -86 -25 -86 c 0
 -3 -86 56 -127 86 -135 c 1
 86 495 l 1
 305 714 l 1
 334 685 l 1
 334 685 337 679 343 671 c 0
 357 661 374 654 395 654 c 0
 423 654 485 714 486 714 c 2
 515 685 l 1
 416 586 l 2
 415 586 353 526 325 526 c 0
 295 526 273 541 258 556 c 0
 257 556 l 2
 231 582 l 1
 214 565 l 1
 214 -115 l 1
 115 -214 l 1
 115 -214 51 -264 25 -264 c 0
 -2 -264 -70 -214 -95 -214 c 0
 -127 -214 -157 -238 -174 -253 c 2
 -185 -264 l 1
596 215 m 1
 596 247 l 1
 565 216 l 1
 445 336 l 1
 424 315 l 1
 424 155 l 2
 424 106 488 91 515 64 c 1
 596 145 l 1
 596 215 l 1
EndSplineSet
LCarets2: 2 360 660 
Ligature2: "Ligatures-1" longs c h
EndChar
StartChar: longs_j
Encoding: 62715 62715 329
Width: 540
GlyphClass: 3
Flags: W
HStem: -214 128<-111 -1> 444 20G<395 435> 444 20G<395 435> 466 21G<355 395>
VStem: 86 128<-115 495> 356 128<-55 315>
LayerCount: 2
Back
SplineSet
420 360 m 1
 420 -90 l 9
 340 -170 l 1049
380 400 m 25
 460 320 l 1025
-150 -200 m 1
 -150 -200 -106 -150 -60 -150 c 8
 -9 -150 9 -200 60 -200 c 24
 100 -200 150 -150 150 -150 c 1
 150 530 l 1
 270 650 l 1
 270 650 330 610 490 610 c 9
 410 530 l 1025
EndSplineSet
Fore
SplineSet
-185 -264 m 1x9c
 -214 -235 l 1
 -214 -235 -212 -232 -209 -229 c 2
 -110 -130 l 2
 -97 -117 -61 -86 -25 -86 c 0
 23 -86 43 -130 86 -135 c 1
 86 495 l 1
 305 714 l 1
 305 714 365 674 525 674 c 1
 554 645 l 1
 375 466 l 1
 346 495 l 1
 399 548 l 1
 281 556 235 586 235 586 c 1
 214 565 l 1
 214 -115 l 1
 115 -214 l 1
 115 -214 65 -264 25 -264 c 0
 -26 -264 -44 -214 -95 -214 c 0
 -127 -214 -157 -238 -174 -253 c 2
 -185 -264 l 1x9c
316 365 m 1
 415 464 l 1xdc
 455 424 l 1
 484 395 l 1
 524 355 l 1
 484 315 l 1
 484 -55 l 1
 305 -234 l 1
 276 -205 l 1
 356 -125 l 1
 356 325 l 1
 316 365 l 1
EndSplineSet
LCarets2: 1 360 
Ligature2: "Ligatures-1" longs j
EndChar
StartChar: longs_k
Encoding: 62716 62716 708
Width: 780
Flags: W
HStem: -214 128<-111 -7.5> 469 20G<635 675>
VStem: 86 128<-115 495> 356 128<85 198 282 540.011> 596 128<85 154>
LayerCount: 2
Back
SplineSet
620 425 m 25
 700 345 l 1049
420 200 m 1
 660 350 l 9
 660 385 l 1049
540 275 m 1
 660 200 l 1
 660 40 l 1025
620 80 m 25
 700 0 l 1049
380 80 m 25
 460 0 l 1049
-150 -200 m 17
 -150 -200 -106 -150 -60 -150 c 8
 -22 -150 21 -200 60 -200 c 24
 93 -200 150 -150 150 -150 c 1
 150 530 l 1
 270 650 l 1
 270 650 319 600 420 600 c 9
 420 40 l 1025
EndSplineSet
Fore
SplineSet
-185 -264 m 1
 -214 -235 l 1
 -214 -235 -212 -232 -209 -229 c 2
 -110 -130 l 2
 -97 -117 -61 -86 -25 -86 c 0
 10 -86 50 -129 86 -135 c 1
 86 495 l 1
 305 714 l 1
 308 711 357 664 455 664 c 1
 484 635 l 1
 484 282 l 1
 595 351 l 1
 556 390 l 1
 655 489 l 1
 695 449 l 1
 724 420 l 1
 764 380 l 1
 666 282 l 1
 695 264 l 1
 724 235 l 1
 724 75 l 1
 764 35 l 1
 665 -64 l 1
 625 -24 l 1
 596 5 l 1
 556 45 l 1
 596 85 l 1
 596 154 l 1
 505 211 l 1
 484 198 l 1
 484 75 l 1
 524 35 l 1
 425 -64 l 1
 385 -24 l 1
 356 5 l 1
 316 45 l 1
 356 85 l 1
 356 165 l 1
 356 537 l 1
 277 545 237 584 235 586 c 2
 214 565 l 1
 214 -115 l 1
 115 -214 l 1
 115 -214 58 -264 25 -264 c 0
 -14 -264 -57 -214 -95 -214 c 0
 -127 -214 -157 -238 -174 -253 c 2
 -185 -264 l 1
638 299 m 1
 660 286 l 1
 642 304 l 1
 638 299 l 1
EndSplineSet
LCarets2: 1 360 
Ligature2: "Ligatures-1" longs k
EndChar
StartChar: f_f
Encoding: 64256 64256 320
Width: 600
Flags: W
HStem: -214 128<-111 -14> 336 128<214 326 454 505> 526 21G<550 579> 586 68<631.109 656>
VStem: 86 128<-99.9958 336 464 495> 326 128<-115 336 464 492.89>
LayerCount: 2
Back
SplineSet
150 -150 m 1
 187 -150 262 -200 300 -200 c 0
 334 -200 390 -150 390 -150 c 1
 390 530 l 1
 510 650 l 17
 510 650 540 590 600 590 c 24
 628 590 690 650 691 650 c 1033
-150 -200 m 17
 -150 -200 -106 -150 -60 -150 c 8
 -35 -150 33 -200 60 -200 c 24
 86 -200 150 -150 150 -150 c 1
 150 530 l 1
 270 650 l 1
 270 650 337 530 390 530 c 1025
60 400 m 25
 540 400 l 1049
EndSplineSet
Fore
SplineSet
-185 -264 m 1
 -214 -235 l 1
 -214 -235 -212 -232 -209 -229 c 2
 -110 -130 l 2
 -97 -117 -61 -86 -25 -86 c 0
 -3 -86 56 -127 86 -135 c 1
 86 336 l 1
 25 336 l 1
 -4 365 l 1
 86 455 l 1
 86 495 l 1
 305 714 l 1
 334 685 l 1
 334 685 356 645 384 612 c 0
 398 601 412 594 425 594 c 1
 545 714 l 1
 574 685 l 1
 574 685 577 679 583 671 c 0
 597 661 614 654 635 654 c 0
 663 654 725 714 726 714 c 2
 755 685 l 1
 656 586 l 2
 655 586 593 526 565 526 c 0
 535 526 513 541 498 556 c 2
 471 582 l 1
 454 565 l 1
 454 464 l 1
 575 464 l 1
 604 435 l 1
 505 336 l 1
 454 336 l 1
 454 -115 l 1
 355 -214 l 1
 355 -214 299 -264 265 -264 c 0
 227 -264 152 -214 115 -214 c 1
 115 -214 51 -264 25 -264 c 0
 -2 -264 -70 -214 -95 -214 c 0
 -127 -214 -157 -238 -174 -253 c 2
 -185 -264 l 1
214 464 m 1
 326 464 l 1
 326 476 l 1
 317 481 308 489 300 497 c 2
 271 526 l 2
 255 542 240 562 228 579 c 1
 214 565 l 1
 214 464 l 1
214 336 m 1
 214 -92 l 1
 250 -104 296 -130 326 -135 c 1
 326 336 l 1
 214 336 l 1
EndSplineSet
LCarets2: 1 360 
Ligature2: "Ligatures-1" f f
EndChar
StartChar: f_f_l
Encoding: 64260 64260 325
Width: 780
Flags: W
HStem: -214 128<-111 -14> 336 128<214 326 454 565>
VStem: 86 128<-99.9958 336 464 495> 326 128<-115 336 464 492.89> 596 128<85 367 464 540>
LayerCount: 2
Back
SplineSet
150 -150 m 1
 187 -150 262 -200 300 -200 c 0
 334 -200 390 -150 390 -150 c 1
 390 530 l 1
 510 650 l 17
 510 650 524 625 620 625 c 1
 700 545 l 1025
-150 -200 m 17
 -150 -200 -106 -150 -60 -150 c 8
 -35 -150 33 -200 60 -200 c 24
 86 -200 150 -150 150 -150 c 1
 150 530 l 1
 270 650 l 1
 270 650 337 530 390 530 c 1025
60 400 m 25
 600 400 l 1049
620 80 m 25
 700 0 l 25
 780 80 l 1049
660 585 m 9
 660 40 l 1049
EndSplineSet
Fore
SplineSet
-185 -264 m 1
 -214 -235 l 1
 -214 -235 -212 -232 -209 -229 c 2
 -110 -130 l 2
 -97 -117 -61 -86 -25 -86 c 0
 -3 -86 56 -127 86 -135 c 1
 86 336 l 1
 25 336 l 1
 -4 365 l 1
 86 455 l 1
 86 495 l 1
 305 714 l 1
 334 685 l 1
 334 685 356 645 384 612 c 0
 398 601 412 594 425 594 c 1
 545 714 l 1
 550 709 l 2
 560 702 586 689 655 689 c 1
 695 649 l 1
 724 620 l 1
 764 580 l 1
 724 540 l 1
 724 75 l 1
 735 64 l 1
 815 144 l 1
 844 115 l 1
 665 -64 l 1
 625 -24 l 1
 596 5 l 1
 556 45 l 1
 596 85 l 1
 596 367 l 1
 565 336 l 1
 454 336 l 1
 454 -115 l 1
 355 -214 l 1
 355 -214 299 -264 265 -264 c 0
 227 -264 152 -214 115 -214 c 1
 115 -214 51 -264 25 -264 c 0
 -2 -264 -70 -214 -95 -214 c 0
 -127 -214 -157 -238 -174 -253 c 2
 -185 -264 l 1
596 464 m 1
 596 550 l 1
 585 561 l 1
 507 561 483 578 477 584 c 2
 475 586 l 1
 454 565 l 1
 454 464 l 1
 596 464 l 1
214 464 m 1
 326 464 l 1
 326 476 l 1
 317 481 308 489 300 497 c 2
 271 526 l 2
 255 542 240 562 228 579 c 1
 214 565 l 1
 214 464 l 1
214 336 m 1
 214 -92 l 1
 250 -104 296 -130 326 -135 c 1
 326 336 l 1
 214 336 l 1
EndSplineSet
LCarets2: 2 360 600 
Ligature2: "Ligatures-1" f f l
EndChar
